<svg width="505" height="341" viewBox="0 0 505 341" fill="none" xmlns="http://www.w3.org/2000/svg">
<g clip-path="url(#clip0_2_1432)">
<path d="M465.95 25.77H30.03C21.9832 25.77 15.46 32.2932 15.46 40.34V318.74C15.46 326.787 21.9832 333.31 30.03 333.31H465.95C473.997 333.31 480.52 326.787 480.52 318.74V40.34C480.52 32.2932 473.997 25.77 465.95 25.77Z" fill="#455A64"/>
<path d="M0.239952 313.44H504.09V322.55C504.09 327.271 502.215 331.798 498.876 335.136C495.538 338.475 491.011 340.35 486.29 340.35H18C13.2791 340.35 8.7516 338.475 5.41345 335.136C2.0753 331.798 0.199951 327.271 0.199951 322.55V313.44H0.239952Z" fill="#455A64"/>
<path d="M202.15 310.56L208.4 320.51H296.38L302.18 310.56H202.15Z" fill="#263238"/>
<path d="M476.52 310.56C476.52 310.73 373.3 310.86 246.01 310.86C118.72 310.86 15.46 310.73 15.46 310.56C15.46 310.39 118.66 310.26 246.01 310.26C373.36 310.26 476.52 310.39 476.52 310.56Z" fill="#263238"/>
<path d="M462.11 43.45H32.0499C30.2439 43.45 28.7799 44.914 28.7799 46.72V299.16C28.7799 300.966 30.2439 302.43 32.0499 302.43H462.11C463.916 302.43 465.38 300.966 465.38 299.16V46.72C465.38 44.914 463.916 43.45 462.11 43.45Z" fill="#EBEBEB"/>
<path d="M464.91 302.81H28.3099L28.7799 62.81H464.91V302.81Z" fill="white"/>
<path d="M64.59 53.46C64.5959 54.1515 64.3963 54.8292 64.0164 55.4071C63.6366 55.9849 63.0936 56.4369 62.4565 56.7057C61.8193 56.9744 61.1167 57.0478 60.4377 56.9166C59.7587 56.7853 59.1341 56.4553 58.643 55.9684C58.1519 55.4816 57.8165 54.8598 57.6794 54.182C57.5423 53.5042 57.6096 52.8009 57.8729 52.1615C58.1361 51.522 58.5834 50.9752 59.158 50.5903C59.7325 50.2055 60.4085 50 61.1 50C62.0212 49.9974 62.9059 50.3601 63.5601 51.0087C64.2143 51.6573 64.5847 52.5388 64.59 53.46Z" fill="#263238"/>
<path d="M43.46 53.46C43.4659 54.1528 43.2655 54.8316 42.8843 55.4101C42.5031 55.9886 41.9584 56.4406 41.3195 56.7085C40.6805 56.9763 39.9763 57.048 39.2966 56.9143C38.6168 56.7806 37.9922 56.4476 37.5023 55.9577C37.0124 55.4678 36.6794 54.8432 36.5457 54.1634C36.412 53.4836 36.4837 52.7794 36.7515 52.1405C37.0194 51.5016 37.4713 50.9569 38.0498 50.5757C38.6283 50.1945 39.3072 49.9941 40 50C40.916 50.0053 41.793 50.3715 42.4408 51.0192C43.0885 51.667 43.4547 52.544 43.46 53.46Z" fill="#263238"/>
<path d="M53.6 53.46C53.6 54.1502 53.3953 54.825 53.0118 55.3989C52.6283 55.9729 52.0833 56.4202 51.4456 56.6843C50.8079 56.9485 50.1061 57.0176 49.4291 56.8829C48.7521 56.7483 48.1303 56.4159 47.6422 55.9278C47.1541 55.4397 46.8217 54.8178 46.6871 54.1409C46.5524 53.4639 46.6215 52.7621 46.8857 52.1244C47.1498 51.4867 47.5971 50.9416 48.1711 50.5582C48.745 50.1747 49.4197 49.97 50.11 49.97C50.5687 49.9687 51.0231 50.058 51.4471 50.233C51.8711 50.4079 52.2564 50.6649 52.5807 50.9892C52.9051 51.3136 53.1621 51.6988 53.337 52.1229C53.5119 52.5469 53.6013 53.0013 53.6 53.46Z" fill="#263238"/>
<path d="M465.38 279.63H28.3099V302.81H465.38V279.63Z" fill="#263238"/>
<path d="M44.8299 293.9V294.64H41.3499V294.06L43.2199 292.28C43.6799 291.84 43.7599 291.56 43.7599 291.28C43.7599 290.85 43.4599 290.6 42.8799 290.6C42.6708 290.589 42.462 290.627 42.2708 290.712C42.0795 290.797 41.9113 290.927 41.7799 291.09L41.1599 290.62C41.3791 290.36 41.6558 290.154 41.9682 290.018C42.2805 289.883 42.62 289.822 42.9599 289.84C43.9599 289.84 44.6499 290.35 44.6499 291.19C44.6433 291.483 44.5685 291.77 44.4314 292.029C44.2942 292.287 44.0985 292.51 43.8599 292.68L42.5999 293.88L44.8299 293.9Z" fill="white"/>
<path d="M45.2999 291.56C45.2999 291.449 45.333 291.34 45.395 291.248C45.457 291.156 45.5451 291.084 45.648 291.042C45.7509 291 45.864 290.989 45.9729 291.012C46.0818 291.034 46.1816 291.088 46.2595 291.168C46.3374 291.247 46.3899 291.348 46.4104 291.457C46.4308 291.566 46.4183 291.679 46.3744 291.781C46.3304 291.883 46.2571 291.97 46.1637 292.031C46.0703 292.091 45.9611 292.122 45.8499 292.12C45.7765 292.121 45.7035 292.108 45.6354 292.08C45.5674 292.052 45.5058 292.011 45.4543 291.959C45.4028 291.906 45.3626 291.844 45.336 291.775C45.3095 291.707 45.2972 291.633 45.2999 291.56ZM45.2999 294.13C45.2893 294.051 45.2957 293.97 45.3187 293.894C45.3417 293.817 45.3808 293.747 45.4334 293.687C45.4859 293.627 45.5507 293.578 45.6234 293.545C45.6961 293.512 45.7751 293.495 45.8549 293.495C45.9348 293.495 46.0137 293.512 46.0864 293.545C46.1591 293.578 46.2239 293.627 46.2765 293.687C46.329 293.747 46.3681 293.817 46.3912 293.894C46.4142 293.97 46.4206 294.051 46.4099 294.13C46.4206 294.209 46.4142 294.29 46.3912 294.366C46.3681 294.443 46.329 294.513 46.2765 294.573C46.2239 294.633 46.1591 294.682 46.0864 294.715C46.0137 294.748 45.9348 294.765 45.8549 294.765C45.7751 294.765 45.6961 294.748 45.6234 294.715C45.5507 294.682 45.4859 294.633 45.4334 294.573C45.3808 294.513 45.3417 294.443 45.3187 294.366C45.2957 294.29 45.2893 294.209 45.2999 294.13Z" fill="white"/>
<path d="M48.6 289.92V294.64H47.73V290.64H46.73V289.9L48.6 289.92Z" fill="white"/>
<path d="M53.75 293.57H52.91V294.64H52.06V293.57H49.47V293L51.8 290H52.74L50.54 292.91H52.09V291.96H52.91V292.91H53.75V293.57Z" fill="white"/>
<path d="M419.7 291.68H61.46V293.31H419.7V291.68Z" fill="white"/>
<path d="M173.14 289.93H61.1899V294.29H173.14V289.93Z" fill="#CC2E41"/>
<path d="M176.76 292.5C176.76 293.578 176.44 294.632 175.842 295.528C175.243 296.424 174.391 297.123 173.396 297.535C172.4 297.948 171.304 298.056 170.247 297.845C169.19 297.635 168.218 297.116 167.456 296.354C166.694 295.592 166.175 294.62 165.965 293.563C165.754 292.506 165.862 291.41 166.275 290.414C166.687 289.419 167.386 288.567 168.282 287.969C169.178 287.37 170.232 287.05 171.31 287.05C172.755 287.05 174.142 287.624 175.164 288.646C176.186 289.668 176.76 291.055 176.76 292.5Z" fill="#CC2E41"/>
<path d="M428.72 292.45C428.718 292.668 428.671 292.883 428.582 293.081C428.492 293.28 428.363 293.458 428.201 293.603C428.039 293.749 427.849 293.86 427.642 293.928C427.435 293.996 427.217 294.021 427 294C425.71 294 425 293.17 425 291.65C424.96 291.327 424.992 291 425.092 290.69C425.192 290.38 425.358 290.096 425.578 289.857C425.799 289.619 426.069 289.431 426.37 289.307C426.671 289.183 426.995 289.126 427.32 289.14C427.754 289.129 428.182 289.236 428.56 289.45L428.23 290.11C427.963 289.946 427.653 289.866 427.34 289.88C426.45 289.88 425.89 290.43 425.89 291.5C426.052 291.331 426.248 291.2 426.466 291.115C426.683 291.031 426.917 290.995 427.15 291.01C427.349 290.996 427.548 291.023 427.736 291.089C427.924 291.155 428.097 291.259 428.244 291.393C428.391 291.528 428.509 291.691 428.59 291.873C428.672 292.054 428.716 292.251 428.72 292.45ZM427.87 292.45C427.87 291.96 427.5 291.65 426.93 291.65C426.81 291.63 426.687 291.636 426.57 291.667C426.452 291.698 426.342 291.754 426.248 291.83C426.153 291.907 426.076 292.002 426.021 292.111C425.967 292.22 425.935 292.339 425.93 292.46C425.93 292.9 426.28 293.25 426.93 293.25C427.043 293.268 427.158 293.263 427.268 293.234C427.379 293.205 427.481 293.152 427.57 293.081C427.659 293.009 427.732 292.919 427.783 292.817C427.835 292.716 427.864 292.604 427.87 292.49V292.45Z" fill="white"/>
<path d="M429.15 290.83C429.139 290.751 429.146 290.67 429.169 290.594C429.192 290.517 429.231 290.447 429.283 290.387C429.336 290.327 429.401 290.278 429.474 290.245C429.546 290.212 429.625 290.195 429.705 290.195C429.785 290.195 429.864 290.212 429.936 290.245C430.009 290.278 430.074 290.327 430.127 290.387C430.179 290.447 430.218 290.517 430.241 290.594C430.264 290.67 430.271 290.751 430.26 290.83C430.271 290.909 430.264 290.99 430.241 291.066C430.218 291.143 430.179 291.213 430.127 291.273C430.074 291.333 430.009 291.382 429.936 291.415C429.864 291.448 429.785 291.465 429.705 291.465C429.625 291.465 429.546 291.448 429.474 291.415C429.401 291.382 429.336 291.333 429.283 291.273C429.231 291.213 429.192 291.143 429.169 291.066C429.146 290.99 429.139 290.909 429.15 290.83ZM429.15 293.4C429.139 293.321 429.146 293.24 429.169 293.164C429.192 293.087 429.231 293.017 429.283 292.957C429.336 292.897 429.401 292.848 429.474 292.815C429.546 292.782 429.625 292.765 429.705 292.765C429.785 292.765 429.864 292.782 429.936 292.815C430.009 292.848 430.074 292.897 430.127 292.957C430.179 293.017 430.218 293.087 430.241 293.164C430.264 293.24 430.271 293.321 430.26 293.4C430.271 293.479 430.264 293.56 430.241 293.636C430.218 293.713 430.179 293.783 430.127 293.843C430.074 293.903 430.009 293.952 429.936 293.985C429.864 294.018 429.785 294.035 429.705 294.035C429.625 294.035 429.546 294.018 429.474 293.985C429.401 293.952 429.336 293.903 429.283 293.843C429.231 293.783 429.192 293.713 429.169 293.636C429.146 293.56 429.139 293.479 429.15 293.4Z" fill="white"/>
<path d="M430.82 291.55C430.82 290 431.67 289.12 432.82 289.12C433.97 289.12 434.82 290 434.82 291.55C434.82 293.1 433.97 293.98 432.82 293.98C431.67 293.98 430.82 293.1 430.82 291.55ZM433.88 291.55C433.88 290.41 433.44 289.89 432.79 289.89C432.14 289.89 431.7 290.41 431.7 291.55C431.7 292.69 432.15 293.22 432.79 293.22C433.43 293.22 433.88 292.69 433.88 291.55Z" fill="white"/>
<path d="M435.35 291.55C435.35 290 436.2 289.12 437.35 289.12C438.5 289.12 439.35 290 439.35 291.55C439.35 293.1 438.5 293.98 437.35 293.98C436.2 293.98 435.35 293.1 435.35 291.55ZM438.42 291.55C438.42 290.41 437.97 289.89 437.32 289.89C436.67 289.89 436.24 290.41 436.24 291.55C436.24 292.69 436.68 293.22 437.32 293.22C437.96 293.22 438.42 292.69 438.42 291.55Z" fill="white"/>
<path d="M446.93 291.26H445.29V286.55H450V288.18H446.93V291.26Z" fill="white"/>
<path d="M450 297.4H445.29V292.7H446.92V295.77H450V297.4Z" fill="white"/>
<path d="M457.5 297.4H452.8V295.77H455.86V292.69H457.5V297.4Z" fill="white"/>
<path d="M457.5 291.25H455.87V288.18H452.79V286.55H457.5V291.25Z" fill="white"/>
<path d="M88.19 77.0801H62.45L49.59 99.3701L62.45 121.65H88.19L101.05 99.3701L88.19 77.0801Z" fill="#EBEBEB"/>
<path d="M64.5499 103.73C63.3533 102.5 62.2999 101.138 61.4099 99.67C60.5127 98.1886 60.1361 96.4499 60.3399 94.73C60.6099 93.7659 60.8269 92.7878 60.9899 91.8C61.0899 90.42 60.5099 88.98 60.9899 87.69C61.7499 85.69 64.4599 85.36 66.1099 83.97C67.3899 82.88 68.0199 81.12 69.4299 80.21C70.7395 79.5166 72.2528 79.3111 73.6999 79.63C75.1317 79.9599 76.6027 80.0878 78.0699 80.01C79.0835 79.793 80.0849 79.5226 81.0699 79.2C82.0605 78.8885 83.1324 78.9635 84.0699 79.41C84.5279 79.6601 84.87 80.0793 85.0232 80.5782C85.1764 81.077 85.1286 81.616 84.8899 82.08C86.5799 81.3 88.7199 82.62 89.1799 84.41C89.3563 85.3263 89.2727 86.2736 88.9387 87.1448C88.6047 88.0161 88.0336 88.7765 87.2899 89.34C85.7938 90.4546 84.0388 91.1704 82.1899 91.42C77.0199 92.42 71.4199 91.85 66.9699 89.05" fill="#263238"/>
<path d="M88.4099 109.23C88.2399 106.04 87.3499 99.5 86.4699 93.59C86.0148 90.5284 84.4257 87.7496 82.0177 85.8047C79.6098 83.8598 76.5588 82.8909 73.4699 83.09H72.8299C65.9899 83.95 62.8999 90.24 63.9499 97.09L65.9499 121.64H82.6499C82.6499 121.64 82.2499 117.33 82.2499 117.29C82.2499 117.25 88.7699 115.83 88.4099 109.23Z" fill="#FFBE9D"/>
<path d="M82.24 117.21C79.1961 117.466 76.1446 116.815 73.47 115.34C73.47 115.34 75.83 119.95 82.37 118.92L82.24 117.21Z" fill="#EB996E"/>
<path d="M84.3399 99.25C84.3594 99.4936 84.2822 99.7351 84.125 99.9222C83.9678 100.109 83.7433 100.227 83.4999 100.25C83.3829 100.265 83.264 100.257 83.1501 100.226C83.0363 100.195 82.9297 100.142 82.8367 100.069C82.7436 99.9967 82.6659 99.9064 82.6081 99.8035C82.5503 99.7006 82.5135 99.5872 82.4999 99.47C82.4831 99.2269 82.5612 98.9868 82.7179 98.8003C82.8746 98.6137 83.0976 98.4953 83.3399 98.47C83.457 98.4546 83.5759 98.4627 83.6897 98.4937C83.8036 98.5247 83.9102 98.578 84.0032 98.6506C84.0963 98.7232 84.174 98.8136 84.2318 98.9165C84.2896 99.0194 84.3264 99.1327 84.3399 99.25Z" fill="#263238"/>
<path d="M85.27 96.91C85.16 97.04 84.41 96.56 83.39 96.63C82.37 96.7 81.67 97.26 81.55 97.14C81.43 97.02 81.55 96.86 81.91 96.6C82.3283 96.2691 82.8377 96.0737 83.37 96.04C83.8979 96.0021 84.4239 96.1353 84.87 96.42C85.2 96.64 85.32 96.85 85.27 96.91Z" fill="#263238"/>
<path d="M74.76 99.94C74.7631 100.18 74.68 100.413 74.5258 100.596C74.3716 100.78 74.1566 100.902 73.92 100.94C73.6831 100.965 73.4456 100.897 73.2586 100.749C73.0716 100.602 72.9501 100.386 72.92 100.15C72.9169 99.9103 73 99.6775 73.1542 99.4939C73.3084 99.3104 73.5234 99.1883 73.76 99.15C73.9969 99.1245 74.2344 99.193 74.4214 99.3407C74.6084 99.4884 74.7299 99.7036 74.76 99.94Z" fill="#263238"/>
<path d="M75.3099 97.77C75.1999 97.9 74.4499 97.42 73.4299 97.49C72.4099 97.56 71.7099 98.11 71.5899 98C71.4699 97.89 71.5899 97.72 71.9499 97.46C72.3687 97.1216 72.8823 96.9216 73.4197 96.8875C73.9571 96.8535 74.4918 96.9871 74.9499 97.27C75.2399 97.49 75.3599 97.71 75.3099 97.77Z" fill="#263238"/>
<path d="M79.49 105C80.0137 104.795 80.5614 104.657 81.1199 104.59C81.3799 104.59 81.6199 104.48 81.6499 104.3C81.654 104.034 81.5773 103.772 81.4299 103.55L80.53 101.63C79.7107 100.02 79.0186 98.3481 78.46 96.63C79.4137 98.1838 80.2397 99.8125 80.9299 101.5C81.2299 102.17 81.52 102.82 81.8 103.43C81.9746 103.732 82.0449 104.084 82 104.43C81.9671 104.523 81.9143 104.608 81.8452 104.679C81.7761 104.75 81.6924 104.805 81.6 104.84C81.4571 104.886 81.3095 104.917 81.16 104.93C80.6086 105.024 80.0473 105.048 79.49 105Z" fill="#263238"/>
<path d="M75.2999 93.77C75.2199 94.05 74.1999 93.99 73.0199 94.22C71.8399 94.45 70.8999 94.83 70.7199 94.59C70.5399 94.35 70.7999 94.21 71.1699 93.91C71.6625 93.5443 72.2349 93.301 72.8399 93.2C73.4415 93.0816 74.063 93.1125 74.6499 93.29C75.0999 93.44 75.3399 93.64 75.2999 93.77Z" fill="#263238"/>
<path d="M84.7 94C84.53 94.24 83.82 94.05 82.98 94.09C82.14 94.13 81.44 94.35 81.26 94.09C81.08 93.83 81.26 93.74 81.57 93.5C81.9658 93.203 82.4452 93.0385 82.94 93.03C83.4334 93.0081 83.9217 93.1372 84.34 93.4C84.65 93.65 84.77 93.88 84.7 94Z" fill="#263238"/>
<path d="M64.7999 102C64.6799 102 60.1699 101 60.6199 105.47C61.0699 109.94 65.9499 108.47 65.9399 108.37C65.9299 108.27 64.7999 102 64.7999 102Z" fill="#FFBE9D"/>
<path d="M63.94 106.85C63.94 106.85 63.87 106.91 63.75 106.98C63.5699 107.079 63.3583 107.104 63.16 107.05C62.8508 106.895 62.5885 106.661 62.4004 106.371C62.2123 106.081 62.1051 105.745 62.09 105.4C62.0379 105.017 62.0756 104.626 62.2 104.26C62.2259 104.113 62.2879 103.975 62.3804 103.858C62.4729 103.741 62.593 103.649 62.73 103.59C62.8174 103.56 62.9124 103.561 62.9996 103.591C63.0867 103.622 63.1609 103.682 63.21 103.76C63.29 103.88 63.27 103.98 63.29 103.98C63.31 103.98 63.38 103.9 63.29 103.71C63.2538 103.604 63.1835 103.512 63.09 103.45C63.0238 103.408 62.9497 103.38 62.8723 103.368C62.7949 103.356 62.7158 103.36 62.64 103.38C62.4597 103.437 62.2966 103.538 62.1655 103.674C62.0345 103.811 61.9398 103.978 61.89 104.16C61.74 104.569 61.6919 105.008 61.75 105.44C61.761 105.844 61.894 106.234 62.1314 106.561C62.3688 106.888 62.6995 107.135 63.08 107.27C63.205 107.293 63.3335 107.288 63.4563 107.255C63.5791 107.222 63.693 107.162 63.79 107.08C64 107 64 106.85 63.94 106.85Z" fill="#EB996E"/>
<path d="M86.1399 87.42C85.8299 89.21 82.1899 90.86 79.1399 90.77C76.3599 90.69 74.9799 89.31 72.9699 88.33C71.6899 87.71 71.6899 87.71 69.9699 87.99C68.5699 88.22 67.8399 89.87 67.0599 91.06C68.5599 94.33 67.9499 98.13 67.3099 101.67C67.2852 102.067 67.1266 102.444 66.8599 102.74C66.5717 102.917 66.2304 102.987 65.8958 102.938C65.5612 102.888 65.2547 102.723 65.0299 102.47C64.29 101.674 63.7968 100.681 63.6099 99.61C62.98 97.2198 62.8304 94.7284 63.1699 92.28C63.5016 89.8305 64.5446 87.5323 66.1699 85.67C68.3127 83.4113 71.2494 82.0738 74.3599 81.94C77.4571 81.8257 80.5117 82.6899 83.0899 84.41C84.3199 85.15 85.3499 86.18 86.0899 87.41" fill="#263238"/>
<path d="M80.1599 107.32L77.8599 106.25C77.7323 106.177 77.5866 106.143 77.4399 106.15C77.2797 106.186 77.1398 106.283 77.0499 106.42C76.7802 106.741 76.6115 107.134 76.5652 107.551C76.5189 107.967 76.5971 108.388 76.7899 108.76C76.9998 109.124 77.3313 109.403 77.7262 109.548C78.1212 109.692 78.5544 109.693 78.9499 109.55C79.3364 109.338 79.6584 109.025 79.8819 108.645C80.1055 108.264 80.2222 107.831 80.2199 107.39L80.1599 107.32Z" fill="#EB996E"/>
<path d="M79 109.72C79 109.72 78.52 110.09 77.65 109.84C77.142 109.668 76.7173 109.311 76.46 108.84C76.2965 108.558 76.1982 108.242 76.1722 107.917C76.1463 107.592 76.1933 107.265 76.31 106.96C76.4321 106.642 76.6234 106.355 76.87 106.12C76.9894 106.01 77.1202 105.913 77.26 105.83C77.3524 105.781 77.4554 105.755 77.56 105.755C77.6646 105.755 77.7676 105.781 77.86 105.83C78.39 106.12 78.74 106.37 79.09 106.59C79.76 107.04 80.16 107.35 80.09 107.41C80.02 107.47 79.59 107.28 78.87 106.91L77.64 106.27C77.55 106.27 77.56 106.27 77.46 106.27C77.3595 106.338 77.2657 106.415 77.18 106.5C76.9917 106.685 76.848 106.911 76.76 107.16C76.6704 107.395 76.6312 107.647 76.645 107.899C76.6588 108.15 76.7252 108.396 76.84 108.62C77.0348 108.997 77.3522 109.297 77.74 109.47C78.49 109.79 79 109.63 79 109.72Z" fill="#263238"/>
<path d="M78.29 99.36C78.29 99.36 78.29 98.95 78.05 98.24C77.7603 97.249 77.1523 96.3809 76.32 95.77C75.6536 95.2744 74.8626 94.9739 74.0353 94.9018C73.208 94.8298 72.377 94.9891 71.635 95.362C70.893 95.7349 70.2692 96.3067 69.8334 97.0136C69.3975 97.7204 69.1667 98.5345 69.1667 99.365C69.1667 100.195 69.3975 101.009 69.8334 101.716C70.2692 102.423 70.893 102.995 71.635 103.368C72.377 103.741 73.208 103.9 74.0353 103.828C74.8626 103.756 75.6536 103.455 76.32 102.96C77.1523 102.349 77.7603 101.481 78.05 100.49C78.25 99.78 78.24 99.36 78.29 99.36C78.34 99.36 78.29 99.47 78.29 99.67C78.2964 99.9626 78.2661 100.255 78.2 100.54C77.9751 101.615 77.3762 102.575 76.51 103.25C75.8623 103.755 75.0979 104.09 74.2871 104.223C73.4763 104.356 72.6451 104.282 71.87 104.01C70.9109 103.669 70.0809 103.039 69.494 102.208C68.907 101.376 68.5919 100.383 68.5919 99.365C68.5919 98.347 68.907 97.354 69.494 96.5223C70.0809 95.6906 70.9109 95.061 71.87 94.72C72.6451 94.4475 73.4763 94.3743 74.2871 94.5071C75.0979 94.6399 75.8623 94.9744 76.51 95.4799C77.3762 96.1548 77.9751 97.1151 78.2 98.19C78.2666 98.475 78.2968 98.7673 78.29 99.06C78.32 99.26 78.31 99.36 78.29 99.36Z" fill="#263238"/>
<path d="M89.52 98.9201C89.47 98.9201 89.52 98.5201 89.28 97.8301C88.9999 96.8667 88.4093 96.023 87.6 95.43C86.9514 94.9482 86.1816 94.6561 85.3766 94.5863C84.5717 94.5166 83.7631 94.6718 83.0412 95.0348C82.3194 95.3979 81.7126 95.9543 81.2886 96.6421C80.8646 97.3299 80.6401 98.122 80.6401 98.93C80.6401 99.738 80.8646 100.53 81.2886 101.218C81.7126 101.906 82.3194 102.462 83.0412 102.825C83.7631 103.188 84.5717 103.344 85.3766 103.274C86.1816 103.204 86.9514 102.912 87.6 102.43C88.4093 101.837 88.9999 100.993 89.28 100.03C89.48 99.3401 89.47 98.93 89.52 98.93C89.57 98.93 89.52 99.03 89.52 99.23C89.5255 99.5155 89.4987 99.8007 89.44 100.08C89.2167 101.126 88.6326 102.061 87.79 102.72C87.1581 103.214 86.4117 103.541 85.6198 103.671C84.828 103.8 84.0164 103.728 83.26 103.46C82.3256 103.126 81.5172 102.512 80.9456 101.701C80.374 100.89 80.0671 99.9222 80.0671 98.93C80.0671 97.9379 80.374 96.97 80.9456 96.159C81.5172 95.348 82.3256 94.7336 83.26 94.4C84.0164 94.1325 84.828 94.06 85.6198 94.1894C86.4117 94.3187 87.1581 94.6457 87.79 95.1401C88.6333 95.8029 89.2173 96.7407 89.44 97.79C89.4995 98.0693 89.5263 98.3546 89.52 98.6401C89.55 98.8201 89.54 98.9201 89.52 98.9201Z" fill="#263238"/>
<path d="M80.36 97.89C80.26 97.98 79.81 97.69 79.21 97.71C78.61 97.73 78.21 98.02 78.07 97.93C77.93 97.84 78.35 97.21 79.2 97.19C80.05 97.17 80.49 97.81 80.36 97.89Z" fill="#263238"/>
<path d="M69.1699 98.7C69.2599 98.81 68.3799 99.6099 67.2199 100.48C66.564 101.078 65.7958 101.541 64.9599 101.84C64.8699 101.73 65.7499 100.93 66.9099 100.06C67.5643 99.4594 68.3329 98.9968 69.1699 98.7Z" fill="#263238"/>
<path d="M162 99.14C162 99.28 150.43 99.4 136.16 99.4C121.89 99.4 110.32 99.28 110.32 99.14C110.32 99 121.89 98.88 136.16 98.88C150.43 98.88 162 99 162 99.14Z" fill="#263238"/>
<path d="M138.09 104.55C138.09 104.69 131.95 104.81 124.37 104.81C116.79 104.81 110.65 104.69 110.65 104.55C110.65 104.41 116.79 104.28 124.37 104.28C131.95 104.28 138.09 104.4 138.09 104.55Z" fill="#263238"/>
<path d="M316.79 139.09C321.317 141.664 325.288 145.111 328.474 149.231C331.66 153.35 333.997 158.061 335.35 163.09C340.18 180.37 354.95 225.37 354.95 225.37C354.95 225.37 363.39 235.3 364.29 242.65C365.19 250 363.39 267.79 360.67 271.11C359.882 272.073 358.871 272.829 357.724 273.312C356.577 273.795 355.329 273.99 354.09 273.88L318.56 270.51L304.56 176.83L316.79 139.09Z" fill="#CC2E41"/>
<path d="M199.31 137.46C199.31 137.46 173.9 145.46 167.57 152.36L188.37 249.12L188 279.66H308.48C308.48 278.15 309.56 178.28 309.56 178.28L316.79 139.09L274 131.56L265.56 124.92L217.93 127.34L210.69 134.57L199.31 137.46Z" fill="#CC2E41"/>
<g opacity="0.3">
<path d="M209 221.41C208.63 220.59 208.09 219.7 207.21 219.52C205.76 219.22 204.79 220.93 204.3 222.33C200.458 233.299 195.136 243.692 188.48 253.22L188.17 268.08C195.17 262.17 202.11 255.84 206.59 247.83C211.07 239.82 212.74 229.77 209 221.41Z" fill="black"/>
</g>
<path d="M167.57 152.36C167.57 152.36 159.2 163.77 155.73 171.22C152.26 178.67 123.45 241.22 121.73 247.69C120.01 254.16 115.53 274.5 128.68 279.22H155.75L182.91 224.29L184.3 160.54L167.57 152.36Z" fill="#CC2E41"/>
<path d="M157.46 239.54C157.46 239.54 156.86 239.01 155.61 238.3C153.826 237.343 151.913 236.649 149.93 236.24C148.567 235.941 147.183 235.747 145.79 235.66C144.185 235.539 142.571 235.654 141 236C137.443 236.914 134.258 238.913 131.89 241.72C129.482 244.496 127.719 247.771 126.73 251.31C125.913 254.203 125.371 257.166 125.11 260.16C124.85 262.72 124.76 264.81 124.67 266.24C124.67 266.92 124.59 267.47 124.57 267.9C124.57 268.096 124.543 268.291 124.49 268.48C124.477 268.287 124.477 268.093 124.49 267.9C124.49 267.46 124.49 266.9 124.49 266.24C124.49 264.79 124.55 262.71 124.76 260.13C124.971 257.087 125.484 254.072 126.29 251.13C127.272 247.511 129.06 244.161 131.52 241.33C133.962 238.444 137.251 236.401 140.92 235.49C142.524 235.156 144.169 235.065 145.8 235.22C147.212 235.324 148.613 235.541 149.99 235.87C151.995 236.316 153.918 237.071 155.69 238.11C156.167 238.405 156.619 238.739 157.04 239.11C157.195 239.238 157.335 239.382 157.46 239.54Z" fill="#263238"/>
<path d="M144.63 228.6C144.926 228.514 145.232 228.467 145.54 228.46C146.375 228.395 147.214 228.395 148.05 228.46C149.294 228.533 150.529 228.717 151.74 229.01C154.72 229.73 157.516 231.066 159.95 232.93C160.941 233.685 161.862 234.528 162.7 235.45C163.268 236.075 163.786 236.744 164.25 237.45C164.439 237.695 164.593 237.964 164.71 238.25C164.63 238.31 163.89 237.25 162.43 235.73C161.567 234.866 160.641 234.067 159.66 233.34C158.451 232.46 157.166 231.69 155.82 231.04C154.466 230.409 153.061 229.893 151.62 229.5C150.438 229.195 149.234 228.981 148.02 228.86C145.94 228.59 144.63 228.7 144.63 228.6Z" fill="#263238"/>
<path d="M169.09 225.59C168.671 225.607 168.252 225.577 167.84 225.5C167.04 225.4 165.89 225.28 164.45 225.17C156.971 224.612 149.455 225.512 142.32 227.82C140.95 228.26 139.85 228.65 139.1 228.94C138.717 229.109 138.319 229.24 137.91 229.33C138.254 229.091 138.627 228.896 139.02 228.75C139.75 228.4 140.84 227.96 142.2 227.47C149.341 224.942 156.955 224.033 164.49 224.81C165.92 224.96 167.08 225.13 167.87 225.3C168.285 225.358 168.693 225.455 169.09 225.59Z" fill="#263238"/>
<path d="M246.18 172.14C246.07 172.045 245.976 171.934 245.9 171.81L245.16 170.81L242.44 167.05C240.11 163.75 236.85 159.15 233.02 153.75L233.44 153.69C231.98 157.97 230.37 162.69 228.68 167.69L228.57 168L228.29 167.82L227.73 167.46C225.551 166.065 223.57 164.383 221.84 162.46C220.241 160.669 218.83 158.719 217.63 156.64C215.632 153.122 214.077 149.37 213 145.47C212.277 142.836 211.693 140.165 211.25 137.47C211.09 136.57 210.97 135.84 210.87 135.29C210.842 135.103 210.798 134.919 210.74 134.74C210.74 134.62 210.67 134.56 210.68 134.55C210.69 134.54 211.09 135.55 211.45 137.44C211.81 139.33 212.38 142.05 213.36 145.34C214.467 149.204 216.042 152.918 218.05 156.4C219.247 158.44 220.644 160.356 222.22 162.12C223.92 163.997 225.864 165.639 228 167L228.55 167.36L228.17 167.5C229.88 162.5 231.5 157.81 232.98 153.5L233.13 153.06L233.4 153.44C237.16 158.89 240.4 163.53 242.67 166.85C243.76 168.47 244.67 169.76 245.28 170.7L245.95 171.7C246.042 171.838 246.119 171.986 246.18 172.14Z" fill="#263238"/>
<g opacity="0.3">
<path d="M277.53 218.33C276.451 229.613 278.897 240.954 284.53 250.79C290.13 260.53 298.35 269.22 308.58 273.88C308.91 263.95 308.43 252.25 308.76 242.32L277.53 218.33Z" fill="black"/>
</g>
<path d="M276.4 205.26C276.4 205.26 272.02 206.47 275.3 215.44C278.58 224.41 279.68 223.86 281.87 232.24C284.06 240.62 286.61 248.24 290.43 253.02C294.25 257.8 308.48 267.42 308.48 267.42L321.24 255.42C321.24 255.42 319.14 246.42 319.64 240.36C320.14 234.3 321.42 219.36 321.24 216.77C321.06 214.18 318.32 208.02 318.32 208.02V203.78L311.76 183.6C311.76 183.6 308.11 181.96 306.84 187.79L304.65 181.6C304.65 181.6 301.19 181.05 300.28 188.16C299.37 195.27 301.01 205.11 301.01 205.11L299.18 217.5L296.45 225.89L294.08 226.25C294.08 226.25 290.51 225.25 288.56 218.56C286.61 211.87 281.32 203.8 276.4 205.26Z" fill="#FFBE9D"/>
<path d="M317 237C317 237 317 236.85 316.94 236.55C316.88 236.25 316.88 235.76 316.85 235.21C316.78 233.99 316.69 232.3 316.58 230.21C316.38 225.86 316.11 219.8 315.79 212.73L315.84 212.88C315.513 212.541 315.1 212.299 314.645 212.179C314.19 212.059 313.711 212.066 313.26 212.2C312.771 212.319 312.31 212.534 311.905 212.832C311.5 213.131 311.158 213.508 310.9 213.94C309.78 215.73 309.72 218.07 309.37 220.32C308.68 225.43 308.02 230.32 307.42 234.73C307.12 236.95 306.8 239.05 306.37 241C305.965 242.808 305.434 244.586 304.78 246.32C304.22 247.91 303.72 249.32 303.41 250.65C303.133 251.745 302.996 252.87 303 254C303.035 254.972 303.203 255.934 303.5 256.86C303.38 256.636 303.28 256.401 303.2 256.16C302.963 255.467 302.828 254.742 302.8 254.01C302.752 252.85 302.863 251.69 303.13 250.56C303.481 249.076 303.918 247.613 304.44 246.18C305.058 244.452 305.559 242.685 305.94 240.89C306.35 238.96 306.66 236.89 306.94 234.65C307.52 230.21 308.17 225.35 308.85 220.23C309.01 219.1 309.13 217.97 309.33 216.85C309.494 215.718 309.874 214.628 310.45 213.64C310.748 213.155 311.139 212.733 311.6 212.4C312.062 212.067 312.585 211.829 313.14 211.7C313.679 211.538 314.253 211.531 314.795 211.679C315.338 211.828 315.828 212.126 316.21 212.54L316.26 212.61V212.69C316.51 219.76 316.72 225.82 316.87 230.18C316.87 232.29 316.96 233.98 317 235.18C317 235.73 317 236.18 317 236.52C317.017 236.679 317.017 236.84 317 237Z" fill="#EB996E"/>
<path d="M310 214C309.772 213.644 309.591 213.261 309.46 212.86C309.042 211.794 308.685 210.706 308.39 209.6C307.961 207.959 307.657 206.287 307.48 204.6C307.356 203.605 307.336 202.599 307.42 201.6C307.513 200.483 307.891 199.408 308.52 198.48C309.081 197.648 309.905 197.028 310.86 196.72L311.05 196.67L311.15 196.84C313 200.1 314.61 202.98 315.73 205.05L317.04 207.5C317.219 207.787 317.36 208.096 317.46 208.42C317.236 208.166 317.042 207.887 316.88 207.59L315.44 205.22C314.24 203.22 312.57 200.35 310.71 197.1L311 197.22C310.163 197.5 309.442 198.048 308.95 198.78C308.374 199.638 308.03 200.63 307.95 201.66C307.85 202.637 307.85 203.622 307.95 204.6C308.1 206.282 308.364 207.953 308.74 209.6C309.06 211 309.41 212.12 309.64 212.89C309.796 213.247 309.917 213.619 310 214Z" fill="#EB996E"/>
<path d="M306.94 215.64C306.851 215.257 306.811 214.863 306.82 214.47C306.82 213.61 306.74 212.55 306.69 211.3C306.61 208.62 306.52 204.92 306.47 200.83C306.321 197.333 306.374 193.831 306.63 190.34C306.755 189.28 306.983 188.236 307.31 187.22C307.407 186.837 307.566 186.472 307.78 186.14C307.413 187.532 307.149 188.949 306.99 190.38C306.74 193.03 306.99 196.73 306.99 200.82C306.99 204.91 307.07 208.61 307.06 211.29C307.06 212.55 307.06 213.61 307.06 214.47C307.063 214.863 307.023 215.256 306.94 215.64Z" fill="#EB996E"/>
<path d="M296.15 249.25C296.08 249.19 296.88 248.25 297.86 246.54C298.434 245.542 298.933 244.503 299.35 243.43C299.841 242.11 300.222 240.752 300.49 239.37C300.724 237.982 300.841 236.577 300.84 235.17C300.825 234.021 300.724 232.874 300.54 231.74C300.21 229.79 299.79 228.63 299.88 228.6C300.038 228.844 300.159 229.111 300.24 229.39C300.522 230.131 300.743 230.893 300.9 231.67C301.145 232.818 301.285 233.986 301.32 235.16C301.408 238.053 300.886 240.932 299.79 243.61C299.348 244.696 298.809 245.74 298.18 246.73C297.763 247.401 297.291 248.037 296.77 248.63C296.4 249.05 296.18 249.27 296.15 249.25Z" fill="#EB996E"/>
<path d="M318.55 243L329.62 246.84C329.62 246.84 340.2 241.37 347.49 246.84C354.78 252.31 361.11 266.72 359.11 272.55C359.11 272.55 354.11 278.77 350.25 279.68C346.39 280.59 331.54 276.98 325.35 275.68C319.16 274.38 308.48 267.44 308.48 267.44L318.55 243Z" fill="#FFBE9D"/>
<path d="M319.91 259.29C319.832 258.962 319.792 258.627 319.79 258.29C319.79 257.54 319.7 256.65 319.64 255.61C319.52 253.35 319.37 250.23 319.32 246.77C319.27 243.31 319.37 240.18 319.57 237.92C319.67 236.79 319.8 235.92 319.91 235.25C319.934 234.907 320.012 234.569 320.14 234.25C320.22 234.25 320.05 235.65 319.94 237.91C319.83 240.17 319.79 243.28 319.84 246.73C319.89 250.18 319.96 253.16 320 255.56C320 256.69 320 257.61 320 258.24C320.027 258.593 319.996 258.947 319.91 259.29Z" fill="#EB996E"/>
<path d="M356.42 246.38C355.273 245.188 354.043 244.079 352.74 243.06C349.538 240.664 345.699 239.269 341.706 239.05C337.713 238.831 333.745 239.799 330.3 241.83C328.902 242.701 327.566 243.667 326.3 244.72C326.564 244.353 326.869 244.017 327.21 243.72C328.11 242.884 329.091 242.14 330.14 241.5C333.618 239.334 337.68 238.293 341.771 238.52C345.862 238.748 349.783 240.232 353 242.77C353.973 243.518 354.864 244.366 355.66 245.3C355.955 245.629 356.21 245.991 356.42 246.38Z" fill="#263238"/>
<path d="M355 237.15C353.57 236.123 352.022 235.27 350.39 234.61C346.378 233.186 342.02 233.056 337.93 234.24C335.68 234.871 333.515 235.771 331.48 236.92C329.824 237.872 328.26 238.977 326.81 240.22C325.57 241.28 324.62 242.22 323.97 242.85C323.651 243.214 323.299 243.549 322.92 243.85C323.18 243.446 323.482 243.071 323.82 242.73C324.684 241.756 325.602 240.831 326.57 239.96C328.007 238.662 329.572 237.513 331.24 236.53C333.295 235.329 335.497 234.398 337.79 233.76C341.98 232.536 346.456 232.722 350.53 234.29C351.747 234.776 352.893 235.422 353.94 236.21C354.31 236.48 354.56 236.74 354.75 236.9C354.94 237.06 355 237.14 355 237.15Z" fill="#263238"/>
<path d="M355.09 229.15C355.09 229.25 353.09 228.66 349.91 228.23C348.031 227.978 346.136 227.858 344.24 227.87C341.917 227.896 339.6 228.103 337.31 228.49C335.024 228.91 332.774 229.505 330.58 230.27C328.791 230.905 327.05 231.667 325.37 232.55C322.5 234.05 320.88 235.27 320.82 235.18C321.16 234.85 321.531 234.556 321.93 234.3C322.366 233.957 322.823 233.643 323.3 233.36C323.85 233.01 324.47 232.6 325.19 232.22C326.871 231.29 328.619 230.488 330.42 229.82C332.63 229.014 334.905 228.398 337.22 227.98C339.533 227.589 341.874 227.391 344.22 227.39C346.139 227.4 348.055 227.557 349.95 227.86C350.76 227.96 351.48 228.15 352.11 228.28C352.657 228.391 353.198 228.531 353.73 228.7C354.195 228.81 354.65 228.961 355.09 229.15Z" fill="#263238"/>
<path d="M270.26 131.23C270.675 132.161 270.931 133.155 271.02 134.17C271.318 137.038 271.177 139.935 270.6 142.76C270.249 144.788 269.772 146.792 269.17 148.76C268.382 151.05 267.412 153.274 266.27 155.41C263.88 160.01 260.88 165.02 257.4 170.41L257 171.04V170.29C257 166.75 257 163.04 257 159.19L257.39 159.38L248 166.87L248.08 166.75C245.853 174.049 244.483 181.584 244 189.2C243.08 201.37 243.82 213.01 244.39 223.57C244.96 234.13 245.21 243.66 245.54 251.66C245.87 259.66 246.14 266.12 246.38 270.59C246.52 272.81 246.62 274.53 246.69 275.73C246.69 276.3 246.76 276.73 246.78 277.07C246.8 277.41 246.78 277.53 246.78 277.53C246.78 277.53 246.78 277.38 246.71 277.08C246.64 276.78 246.63 276.31 246.57 275.74C246.46 274.57 246.32 272.84 246.17 270.6C245.87 266.14 245.52 259.67 245.17 251.67C244.82 243.67 244.39 234.16 243.91 223.59C243.43 213.02 242.56 201.37 243.48 189.16C243.986 181.498 245.392 173.923 247.67 166.59V166.52H247.73L257.09 159.01L257.48 158.69V159.19C257.48 163.04 257.48 166.75 257.48 170.29L257.07 170.16C263.94 159.51 269.53 150.25 270.39 142.76C270.984 139.961 271.166 137.091 270.93 134.24C270.848 133.491 270.711 132.749 270.52 132.02C270.32 131.48 270.26 131.23 270.26 131.23Z" fill="#263238"/>
<path d="M252.32 260.22H252C251.272 260.267 250.59 260.595 250.1 261.135C249.609 261.675 249.348 262.385 249.371 263.114C249.395 263.844 249.701 264.535 250.225 265.043C250.749 265.55 251.45 265.834 252.18 265.834C252.91 265.834 253.611 265.55 254.135 265.043C254.659 264.535 254.965 263.844 254.988 263.114C255.012 262.385 254.751 261.675 254.26 261.135C253.769 260.595 253.088 260.267 252.36 260.22H252.32Z" fill="white"/>
<path d="M252.32 221.68H252C251.274 221.727 250.595 222.054 250.107 222.592C249.618 223.13 249.358 223.838 249.381 224.564C249.405 225.291 249.71 225.98 250.232 226.486C250.754 226.991 251.453 227.274 252.18 227.274C252.907 227.274 253.605 226.991 254.128 226.486C254.65 225.98 254.955 225.291 254.978 224.564C255.002 223.838 254.742 223.13 254.253 222.592C253.764 222.054 253.085 221.727 252.36 221.68H252.32Z" fill="white"/>
<path d="M252 187.2C252.747 187.249 253.482 186.999 254.045 186.506C254.607 186.013 254.951 185.317 255 184.57C255.049 183.823 254.799 183.088 254.306 182.525C253.813 181.963 253.117 181.619 252.37 181.57H252C251.252 181.57 250.535 181.867 250.006 182.396C249.477 182.925 249.18 183.642 249.18 184.39C249.18 185.138 249.477 185.855 250.006 186.384C250.535 186.913 251.252 187.21 252 187.21V187.2Z" fill="white"/>
<path d="M208.77 86.07C205.27 82.18 201.77 78.26 199.18 73.7C196.59 69.14 195.1 63.81 195.94 58.7C196.44 55.7 197.72 52.8 197.94 49.7C198.22 45.5 196.46 41.11 197.94 37.18C200.26 31.02 208.55 30.07 213.57 25.82C217.48 22.51 219.38 17.14 223.68 14.36C227.44 11.92 232.27 11.98 236.68 12.6C241.09 13.22 245.57 14.35 250.01 13.75C253.17 13.33 256.15 12.05 259.24 11.28C262.33 10.51 265.8 10.28 268.55 11.92C271.3 13.56 272.86 17.43 271.05 20.06C276.19 17.69 282.72 21.7 284.13 27.18C285.54 32.66 282.72 38.59 278.36 42.18C274 45.77 268.36 47.48 262.81 48.53C247.07 51.53 229.98 49.82 216.41 41.3" fill="#263238"/>
<path d="M264.14 139C263.37 133 262.74 128.07 262.7 127.45C262.7 127.45 282.62 122.97 281.52 102.83C280.99 93.09 278.27 73.13 275.59 55.1C274.213 45.7533 269.364 37.2688 262.01 31.3381C254.655 25.4073 245.336 22.4658 235.91 23.1L233.91 23.22C213.06 25.85 203.63 45.03 206.83 65.81L218.09 135.48C218.09 135.48 222.89 150.89 233.16 153.56L246.16 172.08L248.3 164.08L257.96 155.66C259.811 153.483 261.411 151.105 262.73 148.57C264.205 145.611 264.699 142.259 264.14 139Z" fill="#FFBE9D"/>
<path d="M262.71 127.17C262.71 127.17 250.06 129.05 235.97 121.46C235.97 121.46 243.15 135.53 263.11 132.38L262.71 127.17Z" fill="#EB996E"/>
<path d="M269.12 72.42C269.176 73.1694 268.938 73.9112 268.456 74.488C267.975 75.0649 267.287 75.4315 266.54 75.51C266.176 75.5633 265.805 75.5431 265.449 75.4506C265.093 75.3581 264.76 75.1951 264.468 74.9714C264.176 74.7476 263.932 74.4676 263.75 74.1478C263.569 73.8281 263.453 73.4752 263.41 73.11C263.343 72.3546 263.578 71.6035 264.063 71.0207C264.549 70.438 265.245 70.071 266 70C266.365 69.9482 266.736 69.9702 267.092 70.0646C267.448 70.159 267.781 70.324 268.072 70.5497C268.363 70.7754 268.606 71.0572 268.786 71.3785C268.966 71.6998 269.079 72.054 269.12 72.42Z" fill="#263238"/>
<path d="M271.93 65.2799C271.6 65.6799 269.31 64.2099 266.22 64.4299C263.13 64.6499 261 66.3399 260.6 65.9999C260.43 65.8499 260.75 65.1499 261.69 64.3599C262.964 63.3417 264.522 62.7441 266.15 62.6499C267.76 62.533 269.366 62.9361 270.73 63.7999C271.73 64.4399 272.09 65.0999 271.93 65.2799Z" fill="#263238"/>
<path d="M239.9 74.5099C239.958 75.2588 239.721 76.0008 239.239 76.5767C238.756 77.1525 238.067 77.5163 237.32 77.5899C236.957 77.6447 236.586 77.6259 236.23 77.5346C235.874 77.4432 235.54 77.2813 235.248 77.0583C234.956 76.8353 234.712 76.5559 234.53 76.2367C234.349 75.9174 234.233 75.5648 234.19 75.1999C234.134 74.4521 234.37 73.7116 234.85 73.1351C235.329 72.5585 236.014 72.1909 236.76 72.1099C237.124 72.0566 237.496 72.0767 237.852 72.1691C238.209 72.2615 238.543 72.4243 238.836 72.648C239.128 72.8717 239.373 73.1516 239.556 73.4714C239.739 73.7912 239.856 74.1443 239.9 74.5099Z" fill="#263238"/>
<path d="M241.57 67.8899C241.23 68.2899 238.95 66.8199 235.86 67.0399C232.77 67.2599 230.6 68.9499 230.24 68.5899C230.06 68.4399 230.38 67.7399 231.32 66.9499C232.598 65.9332 234.159 65.336 235.79 65.24C237.397 65.1245 238.999 65.5275 240.36 66.3899C241.36 67.0499 241.73 67.7099 241.57 67.8899Z" fill="#263238"/>
<path d="M254.32 90.08C254.32 89.9 256.2 89.44 259.32 88.83C260.1 88.7 260.84 88.49 260.94 87.95C260.95 87.1278 260.709 86.3221 260.25 85.64L257.51 79.78C253.7 71.44 250.88 64.55 251.22 64.4C251.56 64.25 254.92 70.89 258.74 79.24L261.38 85.14C261.939 86.0593 262.159 87.1456 262 88.21C261.903 88.4952 261.743 88.7548 261.532 88.9695C261.321 89.1843 261.064 89.3485 260.78 89.45C260.35 89.5991 259.903 89.6932 259.45 89.73C256.29 90.11 254.35 90.25 254.32 90.08Z" fill="#263238"/>
<path d="M241.55 55.71C241.3 56.58 238.19 56.38 234.55 57.06C230.91 57.74 228.08 58.93 227.55 58.21C227.31 57.86 227.77 57.04 228.9 56.14C230.413 55.0416 232.156 54.3001 233.997 53.971C235.838 53.642 237.73 53.7339 239.53 54.24C240.94 54.69 241.66 55.31 241.55 55.71Z" fill="#263238"/>
<path d="M270.19 56.4C269.7 57.14 267.52 56.56 264.95 56.69C262.38 56.82 260.25 57.48 259.7 56.78C259.46 56.44 259.76 55.71 260.7 54.98C261.921 54.1013 263.376 53.6038 264.879 53.5505C266.383 53.4971 267.869 53.8901 269.15 54.68C270.07 55.34 270.41 56 270.19 56.4Z" fill="#263238"/>
<path d="M209.52 80.6599C209.17 80.5399 195.42 77.4999 196.78 91.2299C198.14 104.96 213 100.48 213 100.09C213 99.6999 209.52 80.6599 209.52 80.6599Z" fill="#FFBE9D"/>
<path d="M206.92 95.5799C206.85 95.5799 206.7 95.7699 206.31 95.9899C205.768 96.2926 205.129 96.3715 204.53 96.2099C203.02 95.8199 201.53 93.6399 201.26 91.2099C201.111 90.0365 201.223 88.8445 201.59 87.7199C201.68 87.281 201.874 86.8701 202.156 86.5219C202.437 86.1738 202.799 85.8987 203.21 85.7199C203.479 85.6207 203.773 85.6184 204.044 85.7133C204.314 85.8083 204.542 85.9945 204.69 86.2399C204.91 86.6099 204.85 86.8899 204.92 86.8999C204.99 86.9099 205.19 86.6499 205.03 86.0899C204.917 85.7566 204.695 85.4711 204.4 85.2799C204.196 85.1433 203.968 85.0483 203.728 85.0002C203.488 84.9522 203.24 84.9521 203 84.9999C202.448 85.1691 201.949 85.4766 201.55 85.8932C201.151 86.3098 200.865 86.8216 200.72 87.3799C200.251 88.6265 200.097 89.9694 200.27 91.2899C200.63 94.0499 202.27 96.4999 204.34 96.8699C204.72 96.9422 205.112 96.9276 205.486 96.8272C205.86 96.7268 206.207 96.5431 206.5 96.2899C206.93 95.9099 207 95.5999 206.92 95.5799Z" fill="#EB996E"/>
<path d="M274.58 36.3499C273.64 41.8199 262.58 46.8299 253.36 46.5599C244.89 46.3099 240.7 42.1099 234.55 39.1199C230.65 37.2299 230.65 37.2299 225.36 38.1199C221.09 38.8099 218.87 43.8599 216.47 47.4599C221.04 57.4599 219.19 69.02 217.25 79.82C217.166 81.0379 216.677 82.1928 215.86 83.0999C214.32 84.4599 211.86 83.6499 210.3 82.2599C207.87 80.0299 206.76 76.7299 205.97 73.5299C204.032 66.2517 203.57 58.6595 204.61 51.1999C205.661 43.704 208.888 36.6808 213.89 30.9999C220.432 24.1063 229.395 20.0226 238.89 19.6099C248.337 19.2713 257.651 21.9164 265.51 27.1699C269.15 29.5599 272.51 32.5099 274.61 36.3399" fill="#263238"/>
<path d="M256.35 97L249.35 93.74C248.966 93.513 248.525 93.4019 248.08 93.42C247.588 93.5309 247.155 93.8238 246.87 94.24C246.049 95.2221 245.538 96.4249 245.399 97.6971C245.26 98.9693 245.501 100.254 246.09 101.39C246.731 102.496 247.738 103.344 248.938 103.786C250.138 104.228 251.455 104.236 252.66 103.81C255.14 102.81 256.34 99.9 256.54 97.22L256.35 97Z" fill="#EB996E"/>
<path d="M252.88 104.33C252.88 104.39 252.55 104.59 251.88 104.74C250.877 104.92 249.846 104.844 248.88 104.52C247.404 104.023 246.166 102.992 245.41 101.63C244.932 100.8 244.645 99.8737 244.57 98.9186C244.496 97.9636 244.636 97.004 244.98 96.11C245.332 95.1834 245.885 94.3465 246.6 93.66C246.947 93.3319 247.329 93.0434 247.74 92.8C247.986 92.6533 248.264 92.5676 248.55 92.55C248.828 92.5388 249.105 92.59 249.36 92.7C249.734 92.8882 250.097 93.0951 250.45 93.32L251.4 93.91L253.11 94.97C255.18 96.29 256.43 97.17 256.36 97.29C256.29 97.41 254.91 96.77 252.74 95.61L250.97 94.61L249.97 94.06C249.63 93.89 249.27 93.66 248.97 93.54C248.847 93.4809 248.71 93.4571 248.574 93.4712C248.438 93.4854 248.308 93.5368 248.2 93.62C247.868 93.8294 247.559 94.0742 247.28 94.35C246.686 94.9408 246.223 95.6493 245.92 96.43C245.63 97.1873 245.506 97.9983 245.558 98.8077C245.61 99.6171 245.836 100.406 246.22 101.12C246.843 102.317 247.866 103.258 249.11 103.78C249.971 104.127 250.892 104.3 251.82 104.29C252.48 104.32 252.85 104.26 252.88 104.33Z" fill="#263238"/>
<path d="M250.67 72.77C250.571 71.5983 250.387 70.4352 250.12 69.29C249.625 67.3752 248.734 65.5852 247.506 64.0349C246.278 62.4847 244.739 61.2085 242.988 60.2884C241.238 59.3683 239.314 58.8246 237.34 58.6923C235.367 58.5599 233.388 58.8419 231.53 59.52C230.249 59.9795 229.046 60.6302 227.96 61.45C226.802 62.2789 225.789 63.2924 224.96 64.45C223.178 66.8597 222.216 69.7778 222.216 72.775C222.216 75.7722 223.178 78.6903 224.96 81.1C225.789 82.2575 226.802 83.271 227.96 84.1C229.046 84.9198 230.249 85.5705 231.53 86.03C233.388 86.7017 235.366 86.9788 237.337 86.8435C239.309 86.7082 241.23 86.1636 242.979 85.2444C244.729 84.3251 246.267 83.0514 247.496 81.5045C248.726 79.9576 249.619 78.1714 250.12 76.26C250.385 75.1178 250.569 73.9582 250.67 72.79C250.681 72.8662 250.681 72.9437 250.67 73.02C250.67 73.2 250.67 73.43 250.67 73.7C250.679 74.0717 250.652 74.4434 250.59 74.81C250.534 75.3155 250.444 75.8167 250.32 76.31C250.003 77.6713 249.481 78.9764 248.77 80.18C247.062 83.0993 244.385 85.328 241.204 86.4789C238.024 87.6298 234.541 87.6302 231.36 86.48C230.035 86.0061 228.79 85.3315 227.67 84.48C226.476 83.6246 225.429 82.581 224.57 81.39C222.723 78.8937 221.726 75.8703 221.726 72.765C221.726 69.6596 222.723 66.6362 224.57 64.14C225.423 62.947 226.467 61.903 227.66 61.05C228.78 60.1984 230.025 59.5239 231.35 59.05C233.801 58.17 236.442 57.9628 239 58.45C241.025 58.8373 242.943 59.6534 244.627 60.8435C246.31 62.0336 247.72 63.5702 248.76 65.35C249.471 66.5536 249.993 67.8586 250.31 69.22C250.434 69.7132 250.524 70.2144 250.58 70.72C250.642 71.0866 250.669 71.4583 250.66 71.83C250.66 72.1 250.66 72.33 250.66 72.51C250.676 72.5956 250.68 72.6833 250.67 72.77Z" fill="#263238"/>
<path d="M284.91 71.42C284.812 70.279 284.635 69.1463 284.38 68.03C283.578 65.0055 281.782 62.3389 279.28 60.46C277.575 59.1636 275.588 58.2897 273.48 57.91C271.062 57.4661 268.569 57.6767 266.26 58.52C265.018 58.9694 263.848 59.5995 262.79 60.39C261.676 61.2053 260.698 62.1907 259.89 63.31C258.161 65.6607 257.229 68.5021 257.229 71.42C257.229 74.3378 258.161 77.1792 259.89 79.53C260.695 80.6484 261.674 81.6308 262.79 82.44C263.846 83.2372 265.015 83.871 266.26 84.32C268.57 85.1585 271.062 85.369 273.48 84.9299C275.588 84.5502 277.575 83.6764 279.28 82.38C281.782 80.501 283.578 77.8344 284.38 74.81C284.635 73.6936 284.812 72.5609 284.91 71.42C284.934 71.7161 284.934 72.0138 284.91 72.31C284.914 72.6749 284.887 73.0395 284.83 73.4C284.777 73.892 284.69 74.3798 284.57 74.86C283.933 77.479 282.558 79.8602 280.608 81.7213C278.658 83.5824 276.216 84.8452 273.57 85.36C271.075 85.8309 268.5 85.6272 266.11 84.77C263.467 83.8072 261.165 82.0894 259.49 79.83C257.69 77.3952 256.719 74.4475 256.719 71.42C256.719 68.3924 257.69 65.4447 259.49 63.0099C261.165 60.7505 263.467 59.0327 266.11 58.07C268.5 57.2127 271.075 57.009 273.57 57.48C276.216 57.9947 278.658 59.2575 280.608 61.1186C282.558 62.9797 283.933 65.361 284.57 67.98C284.69 68.4601 284.777 68.9479 284.83 69.44C284.887 69.8004 284.914 70.165 284.91 70.53C284.934 70.8261 284.934 71.1238 284.91 71.42Z" fill="#263238"/>
<path d="M257 68.26C256.94 68.31 256.61 68.04 256 67.75C255.213 67.3755 254.351 67.1873 253.48 67.2C252.611 67.2124 251.757 67.4318 250.99 67.84C250.39 68.15 250.07 68.44 249.99 68.38C249.91 68.32 250.17 67.94 250.77 67.52C251.56 66.9817 252.491 66.6864 253.446 66.6704C254.402 66.6544 255.342 66.9185 256.15 67.43C256.76 67.83 257 68.22 257 68.26Z" fill="#263238"/>
<path d="M222.85 70.73C220.871 72.5273 218.78 74.1973 216.59 75.73C214.495 77.3961 212.297 78.9291 210.01 80.32C211.987 78.516 214.081 76.8456 216.28 75.32C218.369 73.6503 220.564 72.1171 222.85 70.73Z" fill="#263238"/>
<g opacity="0.3">
<path d="M211 135.81C209.61 149.38 214.77 163.71 225.66 171.93C226.51 172.58 227.58 173.22 228.59 172.85C229.263 172.524 229.801 171.972 230.11 171.29C233.16 166.021 234.304 159.863 233.35 153.85C231.63 158.39 230.15 162.85 228.41 167.59C218.94 161.83 213 149.59 211 135.81Z" fill="black"/>
</g>
<path opacity="0.3" d="M247.87 166.67L255.87 163.75L257.19 177.26C257.19 177.26 265.81 161.55 269.38 154.39C272.95 147.23 271.11 134.57 271.11 134.57C271.11 134.57 272.38 145.57 263.75 159.64L257.23 170.24V159.14L247.87 166.67Z" fill="black"/>
<g opacity="0.3">
<path d="M155 235.33C151.353 233.781 147.346 233.279 143.43 233.88C139.256 234.221 135.264 235.732 131.91 238.24C128.67 240.85 126.48 244.97 126.91 249.11L127.31 249.16C130.1 241.62 135.64 236.16 142.79 235.47C149.94 234.78 156.91 237.98 161.79 243.23C161.26 239.31 158.52 237 155 235.33Z" fill="black"/>
</g>
<g opacity="0.3">
<path d="M356.94 243C354.168 240.155 350.546 238.291 346.62 237.69C343.2 237.118 339.696 237.321 336.366 238.285C333.036 239.249 329.965 240.95 327.38 243.26L328.9 242.02C332.767 239.691 337.206 238.486 341.72 238.54C346.25 238.618 350.594 240.354 353.93 243.42C356.93 246.26 358.72 250.11 360.43 253.86C360.707 251.904 360.537 249.91 359.932 248.029C359.328 246.148 358.305 244.429 356.94 243Z" fill="black"/>
</g>
<path d="M305.45 180.3C305.531 179.925 305.652 179.56 305.81 179.21C306.12 178.42 306.5 177.45 306.94 176.3C307.94 173.85 309.24 170.47 310.64 166.7C312.04 162.93 313.25 159.5 314.12 157.02L315.12 154.07C315.227 153.702 315.375 153.346 315.56 153.01C315.529 153.393 315.445 153.77 315.31 154.13C315.12 154.85 314.82 155.87 314.43 157.13C313.65 159.65 312.49 163.13 311.09 166.88C309.69 170.63 308.3 174.03 307.24 176.44C306.72 177.65 306.24 178.62 305.95 179.29C305.825 179.646 305.657 179.985 305.45 180.3Z" fill="#263238"/>
<path d="M179.38 181.28C179.24 181.28 178.15 176.55 176.95 170.65C175.75 164.75 174.89 160 175 159.92C175.11 159.84 176.22 164.65 177.42 170.55C178.62 176.45 179.52 181.25 179.38 181.28Z" fill="#263238"/>
<path d="M177.49 240.77C177.81 240.93 173.83 209.61 173.83 209.61C173.83 209.61 176.34 185.84 177.75 184.74V176.35C177.75 176.35 181.64 174 182.68 177.8C182.68 177.8 186.13 174.8 186.68 181.93C187.23 189.06 187.41 196.34 187.41 196.34L195.08 215.52L196.34 216.16C196.34 216.16 197.99 201.16 198.95 198.92C199.91 196.68 200.57 191.33 204.2 192.14C207.83 192.95 208.14 195.95 207.49 200.85C206.84 205.75 206.02 210.85 206.33 213.99C206.64 217.13 208.07 224.12 207.63 229.66C207.19 235.2 204.15 241.04 200.97 245.14C197.79 249.24 191.7 257.73 188.4 260.28C187.33 261.18 177.49 240.77 177.49 240.77Z" fill="#FFBE9D"/>
<path d="M181.37 215.28C181.32 214.835 181.32 214.385 181.37 213.94C181.43 212.94 181.52 211.76 181.62 210.3C181.85 207.23 182.21 202.99 182.62 198.3C182.84 195.97 183.05 193.75 183.24 191.71C183.354 190.77 183.354 189.82 183.24 188.88C183.134 188.075 182.785 187.322 182.24 186.72C181.84 186.289 181.356 185.945 180.818 185.709C180.279 185.473 179.698 185.351 179.11 185.35C178.67 185.371 178.232 185.424 177.8 185.51C177.898 185.441 178.006 185.387 178.12 185.35C178.441 185.23 178.778 185.159 179.12 185.14C179.75 185.104 180.381 185.204 180.97 185.434C181.558 185.663 182.09 186.017 182.53 186.47C183.135 187.119 183.522 187.941 183.64 188.82C183.765 189.793 183.765 190.777 183.64 191.75C183.46 193.75 183.26 196.02 183.06 198.35C182.63 203.03 182.21 207.26 181.88 210.35L181.47 213.98C181.474 214.415 181.44 214.85 181.37 215.28Z" fill="#EB996E"/>
<path d="M185.49 202.47C184.931 203.231 184.474 204.061 184.13 204.94C183.52 207.154 183.095 209.415 182.86 211.7C182.44 214.38 182.04 216.8 181.72 218.55C181.604 219.504 181.396 220.445 181.1 221.36C181.104 220.398 181.191 219.437 181.36 218.49C181.58 216.73 181.93 214.3 182.36 211.62C182.79 208.94 183.07 206.49 183.81 204.81C184.073 204.152 184.441 203.54 184.9 203C185.23 202.6 185.47 202.45 185.49 202.47Z" fill="#EB996E"/>
<path d="M182.67 177.39C182.809 177.708 182.9 178.045 182.94 178.39C183.08 179.03 183.25 179.96 183.44 181.12C183.82 183.43 184.24 186.64 184.51 190.21C184.78 193.78 184.83 197.02 184.79 199.36C184.79 200.53 184.74 201.48 184.69 202.13C184.698 202.467 184.658 202.804 184.57 203.13C184.449 201.874 184.399 200.612 184.42 199.35C184.37 197.01 184.25 193.79 183.99 190.24C183.73 186.69 183.37 183.48 183.08 181.16C182.869 179.913 182.732 178.654 182.67 177.39Z" fill="#EB996E"/>
<path d="M204.8 206.75C204.421 206.995 203.987 207.143 203.537 207.181C203.088 207.22 202.635 207.147 202.22 206.97C200.75 206.53 200.07 205.4 200.22 205.35C200.908 205.787 201.635 206.162 202.39 206.47C203.184 206.63 203.99 206.724 204.8 206.75Z" fill="#EB996E"/>
<path d="M177.92 236.87L157.66 245.39H145.58C145.58 245.39 133.64 249.12 131.8 260.32C129.96 271.52 129.7 277.27 134.95 278.66C140.2 280.05 155.03 280.2 162.38 277.76C169.73 275.32 188.99 259.76 188.99 259.76L190.84 248.52L177.92 236.87Z" fill="#FFBE9D"/>
<path d="M182.67 249.25C182.67 249.25 182.44 249.08 182.09 248.72C181.608 248.197 181.169 247.635 180.78 247.04C179.512 245.062 178.557 242.9 177.95 240.63C177.323 238.38 176.904 236.077 176.7 233.75C176.565 232.789 176.538 231.817 176.62 230.85C176.837 231.788 176.984 232.74 177.06 233.7C177.369 235.992 177.833 238.261 178.45 240.49C179.054 242.714 179.941 244.852 181.09 246.85C182 248.36 182.74 249.18 182.67 249.25Z" fill="#EB996E"/>
<path d="M191.5 252.8C192.036 251.398 192.422 249.943 192.65 248.46C193.104 244.842 192.128 241.19 189.93 238.28C188.7 236.56 187.31 235.06 186.14 233.6C185.074 232.327 184.155 230.938 183.4 229.46C182.904 228.451 182.567 227.372 182.4 226.26C182.339 225.856 182.339 225.444 182.4 225.04C182.634 226.52 183.1 227.954 183.78 229.29C184.568 230.717 185.503 232.058 186.57 233.29C187.74 234.71 189.14 236.21 190.4 237.97C191.626 239.621 192.488 241.512 192.93 243.52C193.271 245.166 193.315 246.859 193.06 248.52C192.892 249.628 192.583 250.71 192.14 251.74C191.98 252.1 191.83 252.37 191.73 252.55C191.63 252.73 191.51 252.81 191.5 252.8Z" fill="#EB996E"/>
<path d="M160.25 204C158.453 201.085 156.804 198.081 155.31 195C152.71 190 150.71 185.84 150.83 185.77C152.627 188.685 154.276 191.689 155.77 194.77C157.42 197.768 158.915 200.849 160.25 204Z" fill="white"/>
<path d="M193 167.51C193.853 164.946 194.871 162.441 196.05 160.01C197.073 157.512 198.252 155.08 199.58 152.73C198.722 155.292 197.703 157.797 196.53 160.23C195.51 162.729 194.33 165.161 193 167.51Z" fill="white"/>
<path d="M225.13 191.19C223.471 189.594 221.933 187.875 220.53 186.05C219.001 184.332 217.6 182.504 216.34 180.58C218 182.172 219.535 183.891 220.93 185.72C222.464 187.436 223.868 189.265 225.13 191.19Z" fill="white"/>
<path d="M217.74 223.76C218.755 221.932 219.912 220.187 221.2 218.54C222.36 216.8 223.661 215.157 225.09 213.63C224.078 215.46 222.921 217.205 221.63 218.85C220.476 220.595 219.175 222.238 217.74 223.76Z" fill="white"/>
<path d="M207.8 269.77C207.333 269.151 206.94 268.48 206.63 267.77C205.97 266.49 205.12 264.7 204.26 262.69C203.4 260.68 202.71 258.81 202.26 257.46C201.961 256.74 201.746 255.989 201.62 255.22C202.032 255.883 202.367 256.591 202.62 257.33L204.77 262.48C205.6 264.39 206.34 266.12 206.99 267.61C207.339 268.298 207.611 269.022 207.8 269.77Z" fill="white"/>
<path d="M236 250.21C233.955 250.075 231.925 249.77 229.93 249.3C227.893 248.998 225.886 248.523 223.93 247.88C227.988 248.317 232.003 249.097 235.93 250.21H236Z" fill="white"/>
<path d="M258 207.22C259.792 204.899 261.722 202.688 263.78 200.6C265.715 198.387 267.779 196.29 269.96 194.32C268.161 196.641 266.228 198.855 264.17 200.95C262.235 203.156 260.175 205.25 258 207.22Z" fill="white"/>
<path d="M280 264.55C279.89 264.65 276.66 260.9 272.78 256.2C268.9 251.5 265.85 247.6 265.96 247.51C266.07 247.42 269.3 251.16 273.18 255.86C277.06 260.56 280.09 264.46 280 264.55Z" fill="white"/>
<path d="M143.2 240.12C143.27 240.26 140.32 241.76 137.1 244.23C133.88 246.7 131.64 249.14 131.52 249.03C131.883 248.397 132.342 247.824 132.88 247.33C134.078 246.051 135.382 244.877 136.78 243.82C138.172 242.758 139.65 241.814 141.2 241C141.82 240.611 142.494 240.315 143.2 240.12Z" fill="white"/>
<path d="M151.44 218C150.805 219.415 150.017 220.756 149.09 222C148.301 223.339 147.365 224.587 146.3 225.72C146.937 224.306 147.725 222.965 148.65 221.72C149.437 220.379 150.373 219.131 151.44 218Z" fill="white"/>
<path d="M170 239.72C168.399 237.174 167.714 234.158 168.06 231.17C168.21 231.17 168.26 233.17 168.81 235.5C169.36 237.83 170.14 239.65 170 239.72Z" fill="white"/>
<path d="M172.75 170.8C171.507 171.234 170.213 171.506 168.9 171.61C167.609 171.881 166.287 171.979 164.97 171.9C166.217 171.467 167.514 171.195 168.83 171.09C170.119 170.825 171.436 170.727 172.75 170.8Z" fill="white"/>
<path d="M186.69 146.07C184.536 147.664 182.183 148.968 179.69 149.95C180.713 149.082 181.846 148.352 183.06 147.78C184.193 147.059 185.412 146.484 186.69 146.07Z" fill="white"/>
<path d="M225.9 156.52C224.487 155.083 223.196 153.531 222.04 151.88C220.757 150.329 219.606 148.673 218.6 146.93C221.306 149.91 223.748 153.118 225.9 156.52Z" fill="white"/>
<path d="M275.67 181.38C272.914 178.663 270.84 175.332 269.62 171.66C269.77 171.6 270.84 173.93 272.52 176.6C274.2 179.27 275.79 181.28 275.67 181.38Z" fill="white"/>
<path d="M294.67 187.64C293.463 191.156 291.923 194.548 290.07 197.77C290.603 195.988 291.296 194.258 292.14 192.6C292.824 190.87 293.671 189.209 294.67 187.64Z" fill="white"/>
<path d="M297.33 161.71C295.512 159.945 293.821 158.054 292.27 156.05C290.584 154.159 289.031 152.154 287.62 150.05C291.119 153.71 294.363 157.606 297.33 161.71Z" fill="white"/>
<path d="M268.31 140.65C267.993 139.056 267.842 137.434 267.86 135.81C267.709 134.189 267.733 132.556 267.93 130.94C268.247 132.533 268.398 134.155 268.38 135.78C268.537 137.401 268.513 139.034 268.31 140.65Z" fill="white"/>
<path d="M292 139.34C289.973 139.871 287.906 140.236 285.82 140.43C283.759 140.792 281.672 140.983 279.58 141C281.607 140.469 283.674 140.104 285.76 139.91C287.821 139.548 289.908 139.357 292 139.34Z" fill="white"/>
<path d="M329.23 166.71C327.841 164.431 326.599 162.066 325.51 159.63C324.273 157.266 323.191 154.824 322.27 152.32C323.664 154.597 324.91 156.962 326 159.4C327.232 161.765 328.311 164.207 329.23 166.71Z" fill="white"/>
<path d="M323 190.36C323.418 186.541 324.175 182.766 325.26 179.08C325.139 180.999 324.848 182.903 324.39 184.77C324.098 186.672 323.633 188.543 323 190.36Z" fill="white"/>
<path d="M340.24 209C339.074 206.508 338.072 203.943 337.24 201.32C336.249 198.756 335.424 196.13 334.77 193.46C335.929 195.958 336.931 198.527 337.77 201.15C338.757 203.712 339.582 206.334 340.24 209Z" fill="white"/>
<path d="M337.83 219.91C336.045 219.641 334.329 219.026 332.78 218.1C331.153 217.319 329.701 216.217 328.51 214.86C328.61 214.74 330.45 216.26 333.03 217.64C335.61 219.02 337.88 219.76 337.83 219.91Z" fill="white"/>
<path d="M360 244.77C358.653 242.587 357.607 240.232 356.89 237.77C358.236 239.953 359.282 242.308 360 244.77Z" fill="white"/>
<path d="M229.21 279.45C228.784 278.008 228.522 276.521 228.43 275.02C228.177 273.538 228.09 272.032 228.17 270.53C228.627 271.981 228.905 273.482 229 275C229.239 276.47 229.31 277.964 229.21 279.45Z" fill="white"/>
<path d="M297.14 277.73C297.186 276.266 297.404 274.813 297.79 273.4C298.015 271.953 298.408 270.537 298.96 269.18C298.914 270.644 298.692 272.098 298.3 273.51C298.081 274.957 297.691 276.374 297.14 277.73Z" fill="white"/>
<path d="M310.16 79.44L319 64C313.548 55.1999 311.586 44.6787 313.499 34.5051C315.411 24.3314 321.061 15.2413 329.336 9.02201C337.612 2.80275 347.915 -0.0956895 358.219 0.896554C368.523 1.8888 378.083 6.69994 385.02 14.384C391.957 22.0681 395.768 32.0692 395.704 42.421C395.64 52.7727 391.706 62.7261 384.676 70.3242C377.645 77.9223 368.026 82.6153 357.71 83.4806C347.395 84.3458 337.128 81.3207 328.93 75L310.16 79.44Z" fill="#FAFAFA"/>
<path d="M310.16 79.44L328.93 75.16H329.12L329 75L328.82 75.17C331.45 77.2094 334.309 78.9344 337.34 80.31C340.953 81.9267 344.778 83.0178 348.7 83.55C350.873 83.8534 353.068 83.9638 355.26 83.88C356.39 83.82 357.53 83.79 358.69 83.7L362.19 83.17C372.62 81.1248 381.878 75.1814 388.08 66.55C391.525 61.7754 393.912 56.3206 395.08 50.55C396.27 44.445 396.103 38.1531 394.59 32.12C393.018 25.83 389.975 20.0034 385.71 15.12L384 13.17C383.44 12.54 382.78 12.03 382.18 11.45C381.58 10.87 380.98 10.29 380.3 9.81001L378.3 8.33001C377.648 7.82639 376.959 7.37181 376.24 6.97001L374.14 5.69001L371.94 4.62001C371.22 4.24378 370.479 3.90988 369.72 3.62001C363.82 1.29529 357.475 0.321452 351.15 0.770006C345.185 1.17113 339.382 2.87805 334.15 5.77001C324.717 11.0165 317.666 19.6933 314.46 30C313.175 34.3717 312.568 38.9144 312.66 43.47C312.762 47.4228 313.436 51.3401 314.66 55.1C315.692 58.2247 317.084 61.2183 318.81 64.02V63.89C313.27 73.82 310.56 78.67 310.13 79.43C310.57 78.68 313.35 73.86 319.02 64.01V63.95V63.89C317.336 61.0944 315.987 58.1106 315 55C313.783 51.2659 313.109 47.376 313 43.45C312.934 38.9365 313.551 34.439 314.83 30.11C318.04 19.9426 325.021 11.3903 334.34 6.21001C339.521 3.32422 345.274 1.61697 351.19 1.21001C357.438 0.769679 363.705 1.73676 369.53 4.04001C370.279 4.32981 371.01 4.66373 371.72 5.04001L373.9 6.10001L376 7.40001C376.697 7.79989 377.365 8.24762 378 8.74001L380 10.21C380.67 10.69 381.23 11.29 381.85 11.83C382.47 12.37 383.1 12.91 383.65 13.53L385.32 15.36C389.536 20.1968 392.545 25.9646 394.1 32.19C395.603 38.1464 395.77 44.3614 394.59 50.39C393.447 56.099 391.094 61.4969 387.69 66.22C381.567 74.7658 372.421 80.6615 362.11 82.71L358.65 83.25C357.5 83.34 356.37 83.38 355.25 83.44C353.079 83.5285 350.904 83.4282 348.75 83.14C344.853 82.6359 341.048 81.5786 337.45 80C334.432 78.6506 331.583 76.9523 328.96 74.94L328.19 74.35L328.78 75.12L328.85 74.92L310.16 79.44Z" fill="#263238"/>
<path d="M365.4 40.55C365.41 41.3368 365.652 42.1032 366.095 42.7533C366.538 43.4033 367.163 43.9082 367.892 44.2048C368.621 44.5013 369.421 44.5763 370.192 44.4204C370.964 44.2644 371.672 43.8845 372.228 43.3281C372.784 42.7717 373.164 42.0636 373.32 41.2924C373.476 40.5212 373.401 39.7211 373.105 38.9922C372.808 38.2634 372.303 37.6382 371.653 37.1949C371.003 36.7516 370.237 36.5099 369.45 36.5C368.916 36.4933 368.387 36.5935 367.892 36.7946C367.398 36.9958 366.949 37.2938 366.571 37.6713C366.194 38.0487 365.896 38.4978 365.695 38.9922C365.493 39.4866 365.393 40.0163 365.4 40.55Z" fill="#263238"/>
<path d="M349.21 40.55C349.22 41.3389 349.463 42.1073 349.908 42.7585C350.354 43.4097 350.982 43.9146 351.714 44.2097C352.445 44.5048 353.248 44.5769 354.021 44.4169C354.793 44.257 355.501 43.8722 356.056 43.3108C356.61 42.7495 356.986 42.0367 357.136 41.2622C357.287 40.4876 357.205 39.6859 356.901 38.9579C356.596 38.23 356.084 37.6082 355.427 37.1708C354.77 36.7335 353.999 36.5001 353.21 36.5C352.681 36.5 352.156 36.6051 351.668 36.8092C351.179 37.0133 350.736 37.3124 350.364 37.6892C349.992 38.0659 349.698 38.5128 349.5 39.0039C349.302 39.495 349.203 40.0205 349.21 40.55Z" fill="#263238"/>
<path d="M333.06 38.53C332.673 39.2162 332.498 40.0012 332.556 40.7867C332.613 41.5722 332.902 42.3232 333.385 42.9455C333.867 43.5678 334.523 44.0337 335.27 44.2848C336.016 44.5359 336.82 44.5611 337.581 44.3571C338.342 44.1532 339.025 43.7292 339.546 43.1383C340.067 42.5474 340.401 41.8159 340.508 41.0355C340.615 40.2552 340.489 39.4607 340.146 38.7517C339.803 38.0427 339.258 37.4507 338.58 37.05C338.122 36.7792 337.614 36.6026 337.087 36.5305C336.56 36.4584 336.023 36.4922 335.509 36.63C334.995 36.7679 334.514 37.0069 334.093 37.3332C333.673 37.6594 333.321 38.0663 333.06 38.53Z" fill="#263238"/>
</g>
<defs>
<clipPath id="clip0_2_1432">
<rect width="505" height="341" fill="white"/>
</clipPath>
</defs>
</svg>
