<svg width="461" height="461" viewBox="0 0 461 461" fill="none" xmlns="http://www.w3.org/2000/svg">
<g clip-path="url(#clip0_36_2152)">
<path d="M422.4 298.93C422.4 298.93 473.49 241.51 457.25 141.6C441.01 41.6902 357.58 4.88025 302.25 24.1102C246.92 43.3402 234.44 76.8102 189.25 95.9502C144.06 115.09 58.19 101.95 15.25 166.24C-27.69 230.53 27.13 337.06 96.92 403.86C166.71 470.66 344.8 428.84 422.4 298.93Z" fill="#FF5C5C"/>
<path opacity="0.7" d="M422.4 298.93C422.4 298.93 473.49 241.51 457.25 141.6C441.01 41.6902 357.58 4.88025 302.25 24.1102C246.92 43.3402 234.44 76.8102 189.25 95.9502C144.06 115.09 58.19 101.95 15.25 166.24C-27.69 230.53 27.13 337.06 96.92 403.86C166.71 470.66 344.8 428.84 422.4 298.93Z" fill="white"/>
<path d="M46.58 460.25H446.73" stroke="#263238" stroke-miterlimit="10"/>
<path d="M108.67 308.26L124.55 460.05" stroke="#263238" stroke-width="2" stroke-miterlimit="10"/>
<path d="M121.73 428.91L114.67 421.45" stroke="#263238" stroke-width="2" stroke-miterlimit="10"/>
<path d="M116.82 423.69C116.807 422.547 116.55 421.42 116.065 420.385C115.581 419.35 114.88 418.431 114.01 417.69C112.2 416.07 102.66 412.06 101.76 415.42C100.77 419.08 110.53 426.26 116.82 423.69Z" fill="#FF5C5C" stroke="#263238" stroke-miterlimit="10"/>
<path d="M116.82 423.69L107.74 418.03" stroke="#263238" stroke-width="0.5" stroke-miterlimit="10"/>
<path d="M123.5 445.88L116.45 438.42" stroke="#263238" stroke-width="2" stroke-miterlimit="10"/>
<path d="M118.59 440.66C118.577 439.517 118.32 438.39 117.835 437.355C117.351 436.32 116.65 435.401 115.78 434.66C113.97 433.04 104.43 429.03 103.53 432.39C102.54 436.05 112.3 443.22 118.59 440.66Z" fill="#FF5C5C" stroke="#263238" stroke-miterlimit="10"/>
<path d="M118.59 440.66L109.51 435" stroke="#263238" stroke-width="0.5" stroke-miterlimit="10"/>
<path d="M117.41 387.5L110.35 380.05" stroke="#263238" stroke-width="2" stroke-miterlimit="10"/>
<path d="M112.5 382.28C112.487 381.137 112.23 380.01 111.745 378.975C111.261 377.94 110.56 377.021 109.69 376.28C107.88 374.67 98.3401 370.65 97.4401 374.01C96.4501 377.68 106.21 384.85 112.5 382.28Z" fill="#FF5C5C" stroke="#263238" stroke-miterlimit="10"/>
<path d="M112.5 382.28L103.42 376.63" stroke="#263238" stroke-width="0.5" stroke-miterlimit="10"/>
<path d="M119.18 404.47L112.12 397.02" stroke="#263238" stroke-width="2" stroke-miterlimit="10"/>
<path d="M114.27 399.25C114.257 398.107 114 396.98 113.515 395.945C113.031 394.91 112.33 393.991 111.46 393.25C109.65 391.63 100.11 387.62 99.2101 390.98C98.2201 394.64 108 401.82 114.27 399.25Z" fill="#FF5C5C" stroke="#263238" stroke-miterlimit="10"/>
<path d="M114.27 399.25L105.19 393.59" stroke="#263238" stroke-width="0.5" stroke-miterlimit="10"/>
<path d="M114.54 359.94L107.48 352.48" stroke="#263238" stroke-width="2" stroke-miterlimit="10"/>
<path d="M109.62 354.72C109.607 353.577 109.35 352.45 108.865 351.415C108.381 350.38 107.68 349.461 106.81 348.72C105 347.1 95.4601 343.09 94.5601 346.45C93.5801 350.11 103.34 357.29 109.62 354.72Z" fill="#FF5C5C" stroke="#263238" stroke-miterlimit="10"/>
<path d="M109.62 354.72L100.54 349.06" stroke="#263238" stroke-width="0.5" stroke-miterlimit="10"/>
<path d="M111.65 332.26L104.59 324.8" stroke="#263238" stroke-width="2" stroke-miterlimit="10"/>
<path d="M106.73 327C106.717 325.857 106.46 324.73 105.975 323.695C105.491 322.66 104.79 321.741 103.92 321C102.11 319.38 92.58 315.37 91.67 318.73C90.69 322.43 100.45 329.6 106.73 327Z" fill="#FF5C5C" stroke="#263238" stroke-miterlimit="10"/>
<path d="M106.73 327.03L97.65 321.38" stroke="#263238" stroke-width="0.5" stroke-miterlimit="10"/>
<path d="M120.55 418.87L125.91 410.12" stroke="#263238" stroke-width="2" stroke-miterlimit="10"/>
<path d="M124.28 412.75C124.058 411.631 124.078 410.477 124.338 409.367C124.599 408.256 125.094 407.214 125.79 406.31C127.23 404.31 135.73 398.46 137.31 401.56C139 404.93 131 414 124.28 412.75Z" fill="#FF5C5C" stroke="#263238" stroke-miterlimit="10"/>
<path d="M124.28 412.75L132.45 404.93" stroke="#263238" stroke-width="0.5" stroke-miterlimit="10"/>
<path d="M115.89 374.22L121.25 365.47" stroke="#263238" stroke-width="2" stroke-miterlimit="10"/>
<path d="M119.62 368.09C119.399 366.972 119.42 365.82 119.68 364.712C119.941 363.603 120.435 362.562 121.13 361.66C122.57 359.66 131.07 353.8 132.65 356.9C134.37 360.27 126.3 369.31 119.62 368.09Z" fill="#FF5C5C" stroke="#263238" stroke-miterlimit="10"/>
<path d="M119.62 368.09L127.79 360.28" stroke="#263238" stroke-width="0.5" stroke-miterlimit="10"/>
<path d="M113.84 354.59L119.21 345.84" stroke="#263238" stroke-width="2" stroke-miterlimit="10"/>
<path d="M117.57 348.47C117.348 347.351 117.368 346.197 117.628 345.086C117.889 343.976 118.384 342.933 119.08 342.03C120.52 340.08 129.02 334.18 130.6 337.28C132.32 340.65 124.25 349.69 117.57 348.47Z" fill="#FF5C5C" stroke="#263238" stroke-miterlimit="10"/>
<path d="M117.57 348.47L125.74 340.66" stroke="#263238" stroke-width="0.5" stroke-miterlimit="10"/>
<path d="M110.84 325.83L116.2 317.08" stroke="#263238" stroke-width="2" stroke-miterlimit="10"/>
<path d="M114.57 319.7C114.348 318.581 114.368 317.427 114.628 316.316C114.889 315.205 115.384 314.163 116.08 313.26C117.52 311.31 126.02 305.41 127.6 308.51C129.32 311.88 121.25 320.92 114.57 319.7Z" fill="#FF5C5C" stroke="#263238" stroke-miterlimit="10"/>
<path d="M114.57 319.7L122.74 311.89" stroke="#263238" stroke-width="0.5" stroke-miterlimit="10"/>
<path d="M108.54 307.43C108.32 306.312 108.34 305.161 108.601 304.052C108.861 302.943 109.355 301.903 110.05 301C111.49 299 119.99 293.14 121.57 296.24C123.29 299.61 115.22 308.65 108.54 307.43Z" fill="#FF5C5C" stroke="#263238" stroke-miterlimit="10"/>
<path d="M108.54 307.43L116.72 299.62" stroke="#263238" stroke-width="0.5" stroke-miterlimit="10"/>
<path d="M109 307.77C107.863 307.874 106.717 307.733 105.639 307.357C104.561 306.981 103.576 306.378 102.75 305.59C100.95 303.96 95.9801 294.88 99.2301 293.64C102.78 292.28 110.92 301.26 109 307.77Z" fill="#FF5C5C" stroke="#263238" stroke-miterlimit="10"/>
<path d="M109.02 307.77L102.1 298.82" stroke="#263238" stroke-width="0.5" stroke-miterlimit="10"/>
<path d="M149.74 328.81L136.61 460.05" stroke="#263238" stroke-width="2" stroke-miterlimit="10"/>
<path d="M137.68 449.56L132.31 440.81" stroke="#263238" stroke-width="2" stroke-miterlimit="10"/>
<path d="M134 443.44C134.221 442.32 134.199 441.166 133.937 440.055C133.675 438.944 133.178 437.903 132.48 437C131.04 435.05 122.54 429.16 120.96 432.26C119.19 435.63 127.27 444.66 134 443.44Z" fill="#FF5C5C" stroke="#263238" stroke-miterlimit="10"/>
<path d="M133.95 443.44L126.23 436.03" stroke="#263238" stroke-width="0.5" stroke-miterlimit="10"/>
<path d="M141.98 408.15L136.61 399.4" stroke="#263238" stroke-width="2" stroke-miterlimit="10"/>
<path d="M138.24 402C138.462 400.881 138.442 399.727 138.182 398.616C137.921 397.506 137.426 396.463 136.73 395.56C135.29 393.61 126.78 387.72 125.21 390.82C123.49 394.22 131.56 403.25 138.24 402Z" fill="#FF5C5C" stroke="#263238" stroke-miterlimit="10"/>
<path d="M138.24 402.03L130.53 394.63" stroke="#263238" stroke-width="0.5" stroke-miterlimit="10"/>
<path d="M140.22 425.12L134.84 416.37" stroke="#263238" stroke-width="2" stroke-miterlimit="10"/>
<path d="M136.48 419C136.702 417.881 136.682 416.727 136.422 415.616C136.161 414.506 135.666 413.463 134.97 412.56C133.53 410.61 125.02 404.72 123.44 407.82C121.73 411.19 129.8 420.22 136.48 419Z" fill="#FF5C5C" stroke="#263238" stroke-miterlimit="10"/>
<path d="M136.48 419L128.76 411.6" stroke="#263238" stroke-width="0.5" stroke-miterlimit="10"/>
<path d="M144.84 380.59L139.47 371.84" stroke="#263238" stroke-width="2" stroke-miterlimit="10"/>
<path d="M141.1 374.47C141.322 373.351 141.302 372.197 141.042 371.086C140.781 369.976 140.286 368.933 139.59 368.03C138.15 366.03 129.59 360.18 128.07 363.28C126.35 366.65 134.42 375.68 141.1 374.47Z" fill="#FF5C5C" stroke="#263238" stroke-miterlimit="10"/>
<path d="M141.1 374.47L133.39 367.06" stroke="#263238" stroke-width="0.5" stroke-miterlimit="10"/>
<path d="M147.71 352.9L142.34 344.15" stroke="#263238" stroke-width="2" stroke-miterlimit="10"/>
<path d="M144 346.78C144.221 345.66 144.199 344.506 143.937 343.395C143.675 342.285 143.178 341.243 142.48 340.34C141.04 338.39 132.54 332.5 130.96 335.6C129.22 339 137.3 348 144 346.78Z" fill="#FF5C5C" stroke="#263238" stroke-miterlimit="10"/>
<path d="M143.98 346.78L136.26 339.38" stroke="#263238" stroke-width="0.5" stroke-miterlimit="10"/>
<path d="M138.59 439.49L145.64 432.03" stroke="#263238" stroke-width="2" stroke-miterlimit="10"/>
<path d="M143.5 434.27C143.511 433.128 143.767 432.001 144.25 430.967C144.733 429.932 145.432 429.012 146.3 428.27C148.11 426.65 157.65 422.63 158.56 425.99C159.54 429.65 149.79 436.83 143.5 434.27Z" fill="#FF5C5C" stroke="#263238" stroke-miterlimit="10"/>
<path d="M143.5 434.27L153.11 428.31" stroke="#263238" stroke-width="0.5" stroke-miterlimit="10"/>
<path d="M143.22 394.84L150.28 387.38" stroke="#263238" stroke-width="2" stroke-miterlimit="10"/>
<path d="M148.13 389.61C148.143 388.467 148.4 387.34 148.885 386.305C149.369 385.27 150.07 384.351 150.94 383.61C152.75 381.99 162.28 377.98 163.19 381.33C164.18 385 154.42 392.18 148.13 389.61Z" fill="#FF5C5C" stroke="#263238" stroke-miterlimit="10"/>
<path d="M148.13 389.61L157.74 383.65" stroke="#263238" stroke-width="0.5" stroke-miterlimit="10"/>
<path d="M145.26 375.21L152.31 367.75" stroke="#263238" stroke-width="2" stroke-miterlimit="10"/>
<path d="M150.17 370C150.181 368.858 150.437 367.731 150.92 366.696C151.403 365.662 152.102 364.742 152.97 364C154.78 362.38 164.32 358.36 165.23 361.72C166.21 365.37 156.46 372.55 150.17 370Z" fill="#FF5C5C" stroke="#263238" stroke-miterlimit="10"/>
<path d="M150.17 369.99L159.78 364.03" stroke="#263238" stroke-width="0.5" stroke-miterlimit="10"/>
<path d="M148.24 346.44L155.3 338.98" stroke="#263238" stroke-width="2" stroke-miterlimit="10"/>
<path d="M153.15 341.22C153.163 340.077 153.42 338.95 153.905 337.915C154.389 336.88 155.09 335.961 155.96 335.22C157.77 333.6 167.3 329.58 168.21 332.94C169.2 336.6 159.44 343.78 153.15 341.22Z" fill="#FF5C5C" stroke="#263238" stroke-miterlimit="10"/>
<path d="M153.15 341.22L162.76 335.26" stroke="#263238" stroke-width="0.5" stroke-miterlimit="10"/>
<path d="M149.78 328C149.793 326.857 150.05 325.73 150.535 324.695C151.019 323.66 151.72 322.741 152.59 322C154.4 320.38 163.93 316.37 164.84 319.73C165.83 323.36 156.07 330.54 149.78 328Z" fill="#FF5C5C" stroke="#263238" stroke-miterlimit="10"/>
<path d="M149.78 327.97L159.39 322.01" stroke="#263238" stroke-width="0.5" stroke-miterlimit="10"/>
<path d="M150.18 328.4C149.047 328.266 147.956 327.892 146.98 327.302C146.004 326.712 145.165 325.92 144.52 324.98C143.09 322.98 140.1 313.11 143.52 312.56C147.27 312 153.39 322.42 150.18 328.4Z" fill="#FF5C5C" stroke="#263238" stroke-miterlimit="10"/>
<path d="M150.18 328.4L145.25 318.22" stroke="#263238" stroke-width="0.5" stroke-miterlimit="10"/>
<path d="M132 268.05L131.03 460.28" stroke="#263238" stroke-width="2" stroke-miterlimit="10"/>
<path d="M132.15 428.37L125.9 420.22" stroke="#263238" stroke-width="2" stroke-miterlimit="10"/>
<path d="M127.8 422.66C127.904 421.525 127.764 420.382 127.389 419.305C127.015 418.229 126.415 417.245 125.63 416.42C124 414.62 114.93 409.64 113.68 412.88C112.32 416.42 121.28 424.56 127.8 422.66Z" fill="#FF5C5C" stroke="#263238" stroke-miterlimit="10"/>
<path d="M127.8 422.66L119.36 416.09" stroke="#263238" stroke-width="0.5" stroke-miterlimit="10"/>
<path d="M132.15 392.91L125.9 384.76" stroke="#263238" stroke-width="2" stroke-miterlimit="10"/>
<path d="M127.8 387.2C127.904 386.065 127.764 384.922 127.389 383.845C127.015 382.769 126.415 381.785 125.63 380.96C124 379.16 114.93 374.18 113.68 377.43C112.32 381 121.28 389.1 127.8 387.2Z" fill="#FF5C5C" stroke="#263238" stroke-miterlimit="10"/>
<path d="M127.8 387.2L119.36 380.63" stroke="#263238" stroke-width="0.5" stroke-miterlimit="10"/>
<path d="M132.15 351.28L125.9 343.13" stroke="#263238" stroke-width="2" stroke-miterlimit="10"/>
<path d="M127.8 345.57C127.904 344.435 127.764 343.292 127.389 342.216C127.015 341.139 126.415 340.156 125.63 339.33C124 337.53 114.93 332.55 113.68 335.8C112.32 339.33 121.28 347.47 127.8 345.57Z" fill="#FF5C5C" stroke="#263238" stroke-miterlimit="10"/>
<path d="M127.8 345.57L119.36 339" stroke="#263238" stroke-width="0.5" stroke-miterlimit="10"/>
<path d="M132.15 323.56L125.9 315.42" stroke="#263238" stroke-width="2" stroke-miterlimit="10"/>
<path d="M127.8 317.86C127.905 316.723 127.766 315.578 127.391 314.5C127.017 313.422 126.417 312.436 125.63 311.61C124 309.82 114.93 304.84 113.68 308.08C112.32 311.61 121.28 319.76 127.8 317.86Z" fill="#FF5C5C" stroke="#263238" stroke-miterlimit="10"/>
<path d="M127.8 317.86L119.36 311.29" stroke="#263238" stroke-width="0.5" stroke-miterlimit="10"/>
<path d="M132.15 295.73L125.9 287.58" stroke="#263238" stroke-width="2" stroke-miterlimit="10"/>
<path d="M127.8 290C127.905 288.864 127.766 287.718 127.391 286.64C127.017 285.562 126.417 284.577 125.63 283.75C124 281.95 114.93 276.97 113.68 280.22C112.32 283.78 121.28 291.93 127.8 290Z" fill="#FF5C5C" stroke="#263238" stroke-miterlimit="10"/>
<path d="M127.8 290.03L119.36 283.46" stroke="#263238" stroke-width="0.5" stroke-miterlimit="10"/>
<path d="M132.01 439.19L138.26 431.05" stroke="#263238" stroke-width="2" stroke-miterlimit="10"/>
<path d="M136.36 433.49C136.255 432.354 136.394 431.208 136.769 430.13C137.143 429.052 137.744 428.067 138.53 427.24C140.16 425.45 149.23 420.47 150.48 423.71C151.84 427.24 142.87 435.39 136.36 433.49Z" fill="#FF5C5C" stroke="#263238" stroke-miterlimit="10"/>
<path d="M136.36 433.49L145.3 426.57" stroke="#263238" stroke-width="0.5" stroke-miterlimit="10"/>
<path d="M132.01 382.8L138.26 374.65" stroke="#263238" stroke-width="2" stroke-miterlimit="10"/>
<path d="M136.36 377.1C136.255 375.964 136.394 374.818 136.769 373.74C137.143 372.662 137.744 371.677 138.53 370.85C140.16 369.05 149.23 364.07 150.48 367.32C151.84 370.85 142.87 379 136.36 377.1Z" fill="#FF5C5C" stroke="#263238" stroke-miterlimit="10"/>
<path d="M136.36 377.1L145.3 370.17" stroke="#263238" stroke-width="0.5" stroke-miterlimit="10"/>
<path d="M132.01 354.96L138.26 346.82" stroke="#263238" stroke-width="2" stroke-miterlimit="10"/>
<path d="M136.36 349.26C136.255 348.123 136.394 346.978 136.769 345.9C137.143 344.822 137.744 343.836 138.53 343.01C140.16 341.22 149.23 336.24 150.48 339.48C151.84 343 142.87 351.16 136.36 349.26Z" fill="#FF5C5C" stroke="#263238" stroke-miterlimit="10"/>
<path d="M136.36 349.26L145.3 342.34" stroke="#263238" stroke-width="0.5" stroke-miterlimit="10"/>
<path d="M132.01 318.17L138.26 310.03" stroke="#263238" stroke-width="2" stroke-miterlimit="10"/>
<path d="M136.36 312.47C136.255 311.334 136.394 310.188 136.769 309.11C137.143 308.032 137.744 307.047 138.53 306.22C140.16 304.43 149.23 299.45 150.48 302.69C151.84 306.22 142.87 314.37 136.36 312.47Z" fill="#FF5C5C" stroke="#263238" stroke-miterlimit="10"/>
<path d="M136.36 312.47L145.3 305.55" stroke="#263238" stroke-width="0.5" stroke-miterlimit="10"/>
<path d="M132.01 289.25L138.26 281.1" stroke="#263238" stroke-width="2" stroke-miterlimit="10"/>
<path d="M136.36 283.55C136.255 282.413 136.394 281.268 136.769 280.19C137.143 279.112 137.744 278.126 138.53 277.3C140.16 275.5 149.23 270.52 150.48 273.77C151.84 277.3 142.87 285.45 136.36 283.55Z" fill="#FF5C5C" stroke="#263238" stroke-miterlimit="10"/>
<path d="M136.36 283.55L145.3 276.63" stroke="#263238" stroke-width="0.5" stroke-miterlimit="10"/>
<path d="M131.64 270.72C131.535 269.584 131.674 268.438 132.049 267.36C132.423 266.282 133.023 265.297 133.81 264.47C135.44 262.67 144.51 257.7 145.76 260.94C147.12 264.47 138.15 272.62 131.64 270.72Z" fill="#FF5C5C" stroke="#263238" stroke-miterlimit="10"/>
<path d="M131.64 270.72L140.58 263.8" stroke="#263238" stroke-width="0.5" stroke-miterlimit="10"/>
<path d="M132.07 271.1C130.927 271.087 129.8 270.83 128.765 270.345C127.73 269.86 126.811 269.16 126.07 268.29C124.45 266.47 120.45 256.93 123.81 256.03C127.48 255.05 134.65 264.82 132.07 271.1Z" fill="#FF5C5C" stroke="#263238" stroke-miterlimit="10"/>
<path d="M132.07 271.1L126.13 261.49" stroke="#263238" stroke-width="0.5" stroke-miterlimit="10"/>
<path d="M386.04 460.25L380.26 393.62H243.41L235.85 460.25H386.04Z" fill="#263238" stroke="#263238" stroke-miterlimit="10"/>
<path d="M302.22 191.67C302.22 191.67 262.22 202.67 244.72 215.91C227.22 229.15 215.12 242.69 217.94 268.34C220.76 293.99 239.08 364.17 239.08 364.17C239.08 364.17 236.54 392.64 236.54 394.33C236.54 396.02 236.26 400.81 242.46 401.09C248.66 401.37 323.07 404.48 339.7 404.76C356.33 405.04 378.32 403.35 380.85 401.38C382.102 400.339 383.125 399.05 383.853 397.594C384.581 396.137 384.999 394.546 385.08 392.92C385.36 389.54 388.18 348.1 388.18 348.1L388.46 329.5C388.46 329.5 406.79 268.62 407.91 248.89C409.03 229.16 401.71 222.68 393.54 216.48C385.37 210.28 359.93 199.78 346.19 195.62C332.45 191.46 302.22 191.67 302.22 191.67Z" fill="#FF5C5C" stroke="#263238" stroke-miterlimit="10"/>
<path d="M312.09 286.27C310.09 313.72 306.43 364.27 306.75 372.98C307.2 384.98 302.31 388.53 302.31 392.98" stroke="#263238" stroke-miterlimit="10"/>
<path d="M313.42 268.56C313.42 268.56 313.06 273.23 312.51 280.62" stroke="#263238" stroke-miterlimit="10"/>
<path d="M331.28 303.82L333.84 334.02L348.17 333L331.28 303.82Z" fill="#263238" stroke="#263238" stroke-miterlimit="10"/>
<path d="M317.7 356.48C317.7 356.48 352.7 350.98 355.33 351.56C357.96 352.14 375.88 360.82 378.49 361.4C380.188 361.802 381.837 362.385 383.41 363.14L387.34 366.43L386 356.48C386 356.48 380.79 350.11 369.21 345.48C357.63 340.85 351.84 343.48 349.21 344.33C346.58 345.18 317.7 356.48 317.7 356.48Z" fill="#263238" stroke="#263238" stroke-miterlimit="10"/>
<path d="M263.88 330.07L354.88 329.78C354.88 329.78 384.2 326.97 385.32 326.68C386.44 326.39 398.01 329.5 399.14 330.35C400.27 331.2 400.26 333.73 399.7 336.27L399.14 338.8C399.553 340.944 399.833 343.112 399.98 345.29C399.98 347.29 397.73 347.82 397.44 348.67C397.15 349.52 399.14 352.61 396.88 354.59L394.63 356.59C394.63 356.59 394.34 361.95 393.22 363.36C392.1 364.77 388.71 367.3 387.3 366.46C385.89 365.62 386.45 363.36 386.45 361.95C386.45 360.54 385.89 359.13 384.2 359.13C382.51 359.13 382.2 360.54 373.49 358.28C364.78 356.02 355.17 348.42 354.32 348.13C353.47 347.84 277.09 368.43 254.54 371.25C231.99 374.07 230.02 370.97 229.17 367.25C228.32 363.53 226.92 354.85 226.92 354.85L222.92 337.66L263.88 330.07Z" fill="white" stroke="#263238" stroke-miterlimit="10"/>
<path d="M323.05 224.71C323.05 224.71 327.76 219.71 330.73 221.98C333.7 224.25 336.42 236.09 340.13 235.1C343.84 234.11 351.27 211.1 351.27 201.94C351.27 192.78 344.83 187.34 343.35 186.84C341.87 186.34 304 185.84 299.54 187.59C295.08 189.34 293.36 204.91 291.63 214.31C289.9 223.71 293.85 225.94 296.33 224.71C298.81 223.48 308.45 219.51 310.68 219.51C312.91 219.51 323.05 224.71 323.05 224.71Z" fill="#FF5C5C" stroke="#263238" stroke-miterlimit="10"/>
<path d="M348.4 172.54C348.4 172.54 344.85 190.08 343.47 194.41C342.09 198.74 332.04 211.95 329.47 214.71C326.9 217.47 319.42 231.06 317.47 231.46C315.52 231.86 310 213.33 310 213.33C310 213.33 302.9 201.11 301.52 197.96C300.14 194.81 298 185.55 298 185.55C298 185.55 309.62 195.55 322 193.43C334.38 191.31 340.71 178.85 340.71 178.85L348.4 172.54Z" fill="white" stroke="#263238" stroke-miterlimit="10"/>
<path d="M300.29 137.6C300.29 137.6 296.82 133.88 294.84 139.6C292.86 145.32 296.84 155.43 296.84 155.43L300.29 137.6Z" fill="white" stroke="#263238" stroke-miterlimit="10"/>
<path d="M300.91 126C300.91 126 295.2 166.59 295.2 169C295.2 171.41 293.62 179.24 295.99 184.37C298.36 189.5 305.44 195.79 311.16 196.58C316.88 197.37 328.1 196.19 334.41 191.26C340.72 186.33 348 175.7 348 175.7C348 175.7 355.89 174.51 361 172.35C366.11 170.19 370.06 165.25 369.87 160.13C369.643 156.852 368.48 153.708 366.52 151.07L363.52 145.55L371.4 130.77C371.4 130.77 366.87 122.3 352.29 114.22C337.71 106.14 324.7 103.58 318.6 103.58C312.5 103.58 304.8 106.14 302.6 111.07C300.4 116 300.91 126 300.91 126Z" fill="white" stroke="#263238" stroke-miterlimit="10"/>
<path d="M319.63 106.14C319.63 106.14 330.86 124.66 339.34 123.88C347.82 123.1 350.34 119.15 350.34 119.15L356.05 126.83C356.05 126.83 349.95 129.39 351.13 132.55C352.31 135.71 357.63 142.79 357.63 142.79L353.29 161.31C353.29 161.31 356.64 161.9 357.24 160.72C357.84 159.54 360.78 152.25 360.78 152.25C361.575 151.74 362.436 151.343 363.34 151.07C364.382 150.846 365.459 150.846 366.5 151.07C366.5 151.07 368.66 143.78 369.5 143.58C370.34 143.38 378.17 141.21 381.13 133.53C384.09 125.85 379.55 113.63 369.3 103.98C359.05 94.3299 337.38 91.7599 336.2 89.9799C335.02 88.1999 341.72 90.7599 340.34 86.8199C338.96 82.8799 330.29 77.7599 319.26 83.2799C308.23 88.7999 309.8 94.8999 310.98 96.8699L312.16 98.8699C312.16 98.8699 302.9 95.7199 296.4 99.6599C289.9 103.6 286.75 111.48 289.7 112.27C292.65 113.06 296.4 111.27 296.4 111.27C296.4 111.27 292.46 117.77 293.64 119.15C294.82 120.53 300.93 126.04 300.93 126.04C300.93 126.04 303.3 112.25 308.22 110.28C313.14 108.31 319.63 106.14 319.63 106.14Z" fill="#263238" stroke="#263238" stroke-miterlimit="10"/>
<path d="M316.08 132.74L317.86 138.46L307.81 157.37L318.45 161.51" stroke="#263238" stroke-miterlimit="10"/>
<path d="M314.11 130.57C314.11 130.57 309.39 126.83 305.44 127.82C301.49 128.81 303.87 129.39 306.63 130.38C309.39 131.37 314.9 133.92 314.11 130.57Z" fill="#263238" stroke="#263238" stroke-miterlimit="10"/>
<path d="M328.7 129.79C328.7 129.79 324.16 130.97 326.33 131.95C328.5 132.93 335 130.95 337.56 131.95C340.12 132.95 343.47 136.29 343.28 134.71C342.989 133.351 342.349 132.092 341.423 131.055C340.497 130.019 339.318 129.242 338 128.8C334.41 127.62 328.7 129.79 328.7 129.79Z" fill="#263238" stroke="#263238" stroke-miterlimit="10"/>
<path d="M311.51 139.32C311.16 140.75 310.2 141.74 309.35 141.53C308.5 141.32 308.1 140.01 308.44 138.58C308.78 137.15 309.76 136.16 310.6 136.36C311.44 136.56 311.85 137.89 311.51 139.32Z" fill="#263238"/>
<path d="M333 144.94C332.65 146.36 331.68 147.35 330.84 147.15C330 146.95 329.59 145.62 329.93 144.15C330.27 142.68 331.24 141.73 332.09 141.94C332.94 142.15 333.33 143.51 333 144.94Z" fill="#263238"/>
<path d="M301.7 163.87L309.78 169.19" stroke="#263238" stroke-miterlimit="10"/>
<path d="M384.8 211.68C384.8 211.68 412.7 222.4 418.06 238.46C423.42 254.52 416.65 274.82 413.83 283.28C411.01 291.74 393.54 324.71 390.72 332.6C387.9 340.49 383.67 350.08 383.67 350.08C383.67 350.08 379.73 326.4 369 311.75C358.27 297.1 355.75 283.84 355.75 283.84C355.75 283.84 375.2 249.45 380.27 238.74" fill="#FF5C5C"/>
<path d="M384.8 211.68C384.8 211.68 412.7 222.4 418.06 238.46C423.42 254.52 416.65 274.82 413.83 283.28C411.01 291.74 393.54 324.71 390.72 332.6C387.9 340.49 383.67 350.08 383.67 350.08C383.67 350.08 379.73 326.4 369 311.75C358.27 297.1 355.75 283.84 355.75 283.84C355.75 283.84 375.2 249.45 380.27 238.74" stroke="#263238" stroke-miterlimit="10"/>
<path d="M358.73 277.88C358.73 277.88 364.44 275.03 366.34 275.98C368.24 276.93 392.67 289.98 395.84 304.85C398.129 316.036 396.564 327.667 391.4 337.85C388.54 343.25 383.15 353.71 379.03 354.98C374.91 356.25 371.41 322.31 362.85 304.55C354.29 286.79 358.73 277.88 358.73 277.88Z" fill="#FF5C5C" stroke="#263238" stroke-miterlimit="10"/>
<path d="M368.17 261.57C368.17 261.57 373.24 244.38 375.22 237.62" stroke="#263238" stroke-miterlimit="10"/>
<path d="M317.27 200.52C317.27 200.52 309.39 189.52 303.27 182.2C297.15 174.88 290.85 170.57 288.69 171.2C286.53 171.83 285.69 173.96 287.11 176.52C288.53 179.08 294.99 184.8 296.17 186.38C297.35 187.96 299.17 193.67 299.17 193.67C299.17 193.67 293.46 194.06 292.47 195.24C291.55 196.61 290.759 198.063 290.11 199.58C288.92 200.182 287.892 201.06 287.11 202.14C286.522 202.964 286.119 203.905 285.93 204.9C285.73 205.69 282.93 207.07 283.17 210.61C283.41 214.15 286.72 219.28 287.9 221.61C289.08 223.94 297.75 234.41 299.33 236.19C300.91 237.97 309.97 253.72 312.33 259.04C314.69 264.36 337.55 326.04 344.25 335.3C350.95 344.56 363.36 353.42 370.06 356.58C376.76 359.74 381.49 354.41 384.64 347.71C387.79 341.01 390.55 327.61 384.45 312.24C378.35 296.87 366.32 283.67 357.06 275.79C347.8 267.91 330.46 248.21 328.49 244.66C326.52 241.11 324 233.23 324 233.23C324 233.23 329.12 218.23 329.51 214.71C329.9 211.19 327.94 204.86 328.51 202.1C329.08 199.34 331.46 193.82 332.45 191.46C333.44 189.1 336.78 185.15 335.01 183.38C333.24 181.61 325.95 183.77 323.39 187.91C321.107 191.991 319.063 196.201 317.27 200.52Z" fill="white" stroke="#263238" stroke-miterlimit="10"/>
<path d="M256.37 243.19C256.96 240.06 257.37 237.9 257.37 237.9L256.37 243.19Z" fill="#FF5C5C"/>
<path d="M256.37 243.19C256.96 240.06 257.37 237.9 257.37 237.9" stroke="#263238" stroke-miterlimit="10"/>
<path d="M254.58 210.84C254.58 210.84 239.64 212.84 224.14 229.44C208.64 246.04 215.4 285.53 216.81 293.71C218.22 301.89 220.48 327 220.48 327L260.22 313.75C260.22 313.75 253.74 269.5 253.17 265.55C252.89 263.55 253.97 256.55 255.11 250.05" fill="#FF5C5C"/>
<path d="M254.58 210.84C254.58 210.84 239.64 212.84 224.14 229.44C208.64 246.04 215.4 285.53 216.81 293.71C218.22 301.89 220.48 327 220.48 327L260.22 313.75C260.22 313.75 253.74 269.5 253.17 265.55C252.89 263.55 253.97 256.55 255.11 250.05" stroke="#263238" stroke-miterlimit="10"/>
<path d="M216.53 318.23C216.53 318.23 220.48 339.37 222.45 340.49C224.42 341.61 255.14 333.17 258.53 332.6C261.92 332.03 263.88 332.88 263.88 330.07C263.88 327.26 261.06 314 259.37 311.75C257.68 309.5 221.04 314.28 217.94 315.13C214.84 315.98 216.53 318.23 216.53 318.23Z" fill="#FF5C5C" stroke="#263238" stroke-miterlimit="10"/>
<path d="M239 301.89C246.001 304.693 252.794 307.988 259.33 311.75C259.33 311.75 249.75 293.75 245.8 290.04" stroke="#263238" stroke-miterlimit="10"/>
<path d="M233.72 299.91C234.85 300.3 235.97 300.71 237.07 301.12" stroke="#263238" stroke-miterlimit="10"/>
<path d="M326.16 392.18C333.45 389.58 340.16 386.72 344.16 383.9" stroke="#263238" stroke-miterlimit="10"/>
<path d="M291.79 402.22C291.79 402.22 307.36 398.53 322.14 393.57" stroke="#263238" stroke-miterlimit="10"/>
<path d="M357.28 382.73C349.62 386.55 337.49 392.13 327.58 394.61" stroke="#263238" stroke-miterlimit="10"/>
<path d="M364.79 378.83C364.79 378.83 363.22 379.7 360.61 381.04" stroke="#263238" stroke-miterlimit="10"/>
<path d="M101.12 21.14C34.0501 53.45 21.3301 148.31 63.8701 205.33C72.7601 217.25 84.3801 227.33 98.1501 233.14C145.15 253.07 182.82 213.44 205.73 177.02C242.31 118.89 246.88 104.52 246.23 114.31C245.58 124.1 262.56 134.56 272.36 83C284.89 17 192.53 1.99999 145.78 8.23999C130.307 10.1616 115.235 14.5153 101.12 21.14Z" fill="#263238" stroke="#263238" stroke-miterlimit="10"/>
<path d="M266.687 141.124C270.62 134.022 270.355 126.351 266.093 123.991C261.832 121.631 255.189 125.475 251.256 132.577C247.322 139.679 247.588 147.35 251.849 149.71C256.11 152.07 262.753 148.226 266.687 141.124Z" fill="#263238" stroke="#263238" stroke-miterlimit="10"/>
<path d="M273.69 142.58C271.37 146.77 271.53 151.31 274.04 152.7C276.55 154.09 280.49 151.82 282.81 147.63C285.13 143.44 284.98 138.9 282.46 137.51C279.94 136.12 276 138.38 273.69 142.58Z" fill="#263238" stroke="#263238" stroke-miterlimit="10"/>
<path d="M105 14.9998C37.9101 47.2698 25.1901 142.13 67.7301 199.15C76.6201 211.07 88.2501 221.15 102.01 226.96C149.01 246.89 186.68 207.26 209.59 170.84C246.17 112.71 250.75 98.3398 250.09 108.13C249.43 117.92 266.42 128.38 276.22 76.7798C288.75 10.7798 196.39 -4.22023 149.64 2.01977C134.169 3.96881 119.104 8.34947 105 14.9998Z" fill="white" stroke="#263238" stroke-miterlimit="10"/>
<path d="M255.12 126.4C251.18 133.5 251.45 141.17 255.71 143.53C259.97 145.89 266.61 142.04 270.55 134.94C274.49 127.84 274.21 120.17 269.95 117.81C265.69 115.45 259.05 119.3 255.12 126.4Z" fill="white" stroke="#263238" stroke-miterlimit="10"/>
<path d="M277.56 136.4C275.23 140.6 275.39 145.13 277.91 146.52C280.43 147.91 284.35 145.65 286.67 141.45C288.99 137.25 288.84 132.72 286.32 131.33C283.8 129.94 279.88 132.2 277.56 136.4Z" fill="white" stroke="#263238" stroke-miterlimit="10"/>
<path d="M69.5699 86.4496V73.2396H77.5699C77.9521 71.0539 78.5243 68.9058 79.2799 66.8196L72.3299 62.8196L78.9999 51.3696L85.9999 55.3696C87.4287 53.6709 89.0012 52.0984 90.6999 50.6696L86.6999 43.6696L98.1399 37.0596L102.14 44.0596C104.226 43.304 106.374 42.7318 108.56 42.3496V34.3496H121.77V42.3996C123.956 42.7737 126.105 43.3426 128.19 44.0996L132.19 37.1496L143.63 43.7596L139.63 50.7596C141.326 52.1885 142.895 53.761 144.32 55.4596L151.32 51.4596L157.92 62.8996L150.92 66.8996C151.677 68.9846 152.246 71.1332 152.62 73.3196H160.62V86.5296H152.62C152.237 88.7183 151.664 90.8696 150.91 92.9596L157.86 96.9596L151.26 108.4L144.26 104.4C142.834 106.098 141.261 107.667 139.56 109.09L143.56 116.09L132.12 122.69L128.12 115.69C126.031 116.445 123.879 117.014 121.69 117.39V125.39H108.48V117.39C106.294 117.007 104.146 116.435 102.06 115.68L98.0599 122.68L86.5999 116L90.5999 109C88.9012 107.571 87.3287 105.998 85.8999 104.3L78.8999 108.3L72.2899 96.8596L79.2899 92.8596C78.5355 90.7696 77.9634 88.6183 77.5799 86.4296L69.5699 86.4496ZM115.1 104.45C119.97 104.45 124.73 103.005 128.779 100.3C132.828 97.594 135.984 93.7483 137.847 89.249C139.71 84.7497 140.197 79.7989 139.246 75.0228C138.295 70.2467 135.95 65.8599 132.505 62.4171C129.061 58.9743 124.673 56.6303 119.897 55.6815C115.12 54.7326 110.17 55.2216 105.671 57.0866C101.173 58.9515 97.3284 62.1087 94.6243 66.1587C91.9202 70.2088 90.478 74.9698 90.4799 79.8396C90.4773 83.074 91.1123 86.2771 92.3485 89.2659C93.5847 92.2547 95.3979 94.9705 97.6845 97.258C99.9711 99.5455 102.686 101.36 105.674 102.597C108.663 103.835 111.866 104.471 115.1 104.47V104.45Z" fill="#CCCCCC"/>
<path d="M88.3099 164.08V153.35H94.8499C95.1621 151.57 95.6272 149.82 96.2399 148.12L90.5899 144.86L95.9599 135.56L101.63 138.83C102.788 137.447 104.067 136.168 105.45 135.01L102.18 129.35L111.48 123.98L114.74 129.64C116.436 129.024 118.182 128.559 119.96 128.25V121.71H130.7V128.25C132.477 128.561 134.224 129.026 135.92 129.64L139.19 123.99L148.49 129.36L145.22 135C146.601 136.161 147.879 137.439 149.04 138.82L154.7 135.55L160.07 144.85L154.41 148.12C155.023 149.817 155.488 151.563 155.8 153.34H162.34V164.1H155.8C155.489 165.877 155.024 167.624 154.41 169.32L160.06 172.58L154.69 181.89L149 178.61C147.839 179.991 146.561 181.269 145.18 182.43L148.44 188.09L139.14 193.46L135.88 187.81C134.183 188.423 132.437 188.888 130.66 189.2V195.73H120V189.19C118.221 188.889 116.473 188.423 114.78 187.8L111.51 193.46L102.21 188.09L105.48 182.42C104.102 181.259 102.827 179.981 101.67 178.6L95.9999 181.87L90.6299 172.57L96.2899 169.31C95.6772 167.61 95.2121 165.86 94.8999 164.08H88.3099ZM125.31 178.73C129.266 178.73 133.132 177.557 136.421 175.359C139.71 173.162 142.274 170.038 143.788 166.384C145.301 162.729 145.697 158.708 144.926 154.828C144.154 150.949 142.249 147.385 139.452 144.588C136.655 141.791 133.091 139.886 129.212 139.114C125.332 138.343 121.311 138.739 117.656 140.252C114.002 141.766 110.878 144.33 108.681 147.619C106.483 150.908 105.31 154.774 105.31 158.73C105.31 161.358 105.828 163.96 106.834 166.388C107.841 168.816 109.316 171.022 111.175 172.879C113.034 174.737 115.241 176.209 117.67 177.213C120.099 178.217 122.702 178.733 125.33 178.73H125.31Z" fill="#CCCCCC"/>
<path d="M156.55 139.54V131.36H161.55C161.783 129.997 162.138 128.659 162.61 127.36L158.3 124.87L162.39 117.79L166.71 120.28C167.593 119.227 168.567 118.253 169.62 117.37L167.13 113.06L174.21 108.97L176.7 113.28C177.999 112.807 179.338 112.453 180.7 112.22V107.22H188.88V112.22C190.242 112.456 191.58 112.81 192.88 113.28L195.37 108.98L202.45 113.07L199.96 117.38C201.013 118.263 201.987 119.237 202.87 120.29L207.18 117.8L211.27 124.88L206.97 127.37C207.417 128.672 207.752 130.01 207.97 131.37H212.97V139.55H207.97C207.737 140.912 207.382 142.251 206.91 143.55L211.2 146L207.11 153.09L202.79 150.6C201.907 151.65 200.933 152.62 199.88 153.5L202.37 157.82L195.29 161.91L192.8 157.6C191.5 158.068 190.161 158.422 188.8 158.66V163.66H180.62V158.66C179.26 158.444 177.922 158.109 176.62 157.66L174.13 161.96L167.05 157.87L169.54 153.56C168.489 152.674 167.516 151.7 166.63 150.65L162.32 153.14L158.28 146L162.58 143.52C162.115 142.219 161.764 140.881 161.53 139.52L156.55 139.54ZM184.74 150.69C187.754 150.69 190.701 149.796 193.207 148.121C195.713 146.447 197.666 144.067 198.82 141.282C199.973 138.497 200.275 135.433 199.687 132.477C199.099 129.52 197.648 126.805 195.516 124.673C193.385 122.542 190.669 121.091 187.713 120.503C184.757 119.915 181.693 120.216 178.908 121.37C176.123 122.523 173.743 124.477 172.068 126.983C170.394 129.489 169.5 132.436 169.5 135.45C169.5 139.492 171.106 143.368 173.964 146.226C176.822 149.084 180.698 150.69 184.74 150.69Z" fill="#CCCCCC"/>
<path d="M185.68 63.8698V55.6898H190.68C190.917 54.3284 191.272 52.9901 191.74 51.6898L187.44 49.2098L191.53 42.1198L195.84 44.6098C196.728 43.5615 197.702 42.5882 198.75 41.6998L196.26 37.3898L203.35 33.2998L205.83 37.6098C207.129 37.1375 208.468 36.7827 209.83 36.5498V31.5498H218V36.5498C219.361 36.7873 220.7 37.142 222 37.6098L224.48 33.3098L231.57 37.3998L229 41.7298C230.048 42.6157 231.018 43.5892 231.9 44.6398L236.22 42.1498L240.31 49.2398L236 51.7198C236.468 53.0201 236.822 54.3584 237.06 55.7198H242.06V63.8998H237.06C236.826 65.2609 236.474 66.5992 236.01 67.8998L240.31 70.3798L236.22 77.4698L231.91 74.9798C231.024 76.0274 230.051 76.9975 229 77.8798L231.49 82.1998L224.4 86.2898L221.92 81.9798C220.644 82.4297 219.333 82.7709 218 82.9998V87.9998H209.82V82.9998C208.46 82.7818 207.122 82.4473 205.82 81.9998L203.34 86.2998L196.25 82.2098L198.74 77.8998C197.692 77.0114 196.718 76.0381 195.83 74.9898L191.52 77.4798L187.43 70.3898L191.74 67.9098C191.268 66.6109 190.913 65.2722 190.68 63.9098L185.68 63.8698ZM213.87 74.9998C216.887 75.0018 219.836 74.1091 222.345 72.4346C224.854 70.7601 226.81 68.3791 227.966 65.5927C229.122 62.8063 229.425 59.7397 228.838 56.7808C228.251 53.8219 226.799 51.1037 224.667 48.97C222.535 46.8362 219.817 45.3828 216.859 44.7936C213.9 44.2043 210.833 44.5057 208.046 45.6597C205.259 46.8136 202.877 48.7683 201.201 51.2763C199.525 53.7844 198.63 56.7332 198.63 59.7498C198.63 63.7926 200.235 67.67 203.093 70.5297C205.951 73.3893 209.827 74.9972 213.87 74.9998Z" fill="#CCCCCC"/>
</g>
<defs>
<clipPath id="clip0_36_2152">
<rect width="461" height="461" fill="white"/>
</clipPath>
</defs>
</svg>
